<?xml version="1.0" encoding="UTF-8"?>
<svg id="_레이어_1" data-name="레이어 1" xmlns="http://www.w3.org/2000/svg" viewBox="0 0 634.71 1200.8">
  <defs>
    <style>
      .cls-1 {
        fill: #fff;
        stroke-width: 0px;
      }
    </style>
  </defs>
  <path class="cls-1" d="M623.95,1190.72c6.39-6.35,9.98-14.99,9.98-24,0-9.01-3.59-17.65-9.98-24L82.03,600.8,623.95,58.76c6.72-6.29,10.6-15.03,10.75-24.23.16-9.2-3.43-18.07-9.94-24.58-6.51-6.51-15.38-10.09-24.58-9.94-9.2.16-17.95,4.04-24.23,10.76L10.03,576.8C3.61,583.14,0,591.78,0,600.8c0,9.02,3.61,17.66,10.03,24l565.92,565.92c6.27,6.52,14.95,10.16,24,10.08,9.02-.05,17.65-3.68,24-10.08h0Z"/>
</svg>