<?xml version="1.0" encoding="UTF-8"?>
<svg id="_레이어_1" data-name="레이어 1" xmlns="http://www.w3.org/2000/svg" viewBox="0 0 954.92 911.35">
  <defs>
    <style>
      .cls-1 {
        fill: #fff;
        stroke-width: 0px;
      }
    </style>
  </defs>
  <path class="cls-1" d="M451.28,251.75c0,7.25,10.32,15.34,25.12,15.34,28.96,0,51.65,18.38,51.65,41.86,0,19.71-16.09,35.69-38.38,40.34v1.99c0,7.32-5.94,13.26-13.26,13.26s-13.26-5.94-13.26-13.26v-1.99c-22.28-4.66-38.38-20.63-38.38-40.34,0-7.32,5.94-13.26,13.26-13.26s13.26,5.94,13.26,13.26,10.32,15.34,25.12,15.34,25.12-8.07,25.12-15.34-10.32-15.34-25.12-15.34c-28.96,0-51.65-18.38-51.65-41.86,0-19.71,16.09-35.69,38.38-40.34v-1.99c0-7.32,5.94-13.26,13.26-13.26s13.26,5.94,13.26,13.26v1.99c22.28,4.66,38.38,20.63,38.38,40.34,0,7.32-5.94,13.26-13.26,13.26s-13.26-5.94-13.26-13.26-10.31-15.34-25.12-15.34-25.12,8.07-25.12,15.34ZM954.48,283c-1.54,5.81-6.79,9.85-12.79,9.86l-78.47.17v79.63c0,7.32-5.94,13.26-13.26,13.26h-15.91v38.03c0,7.32-5.94,13.26-13.26,13.26h-4.09v274.89h10.4c7.32,0,13.26,5.94,13.26,13.26v42.76h.38c7.32,0,13.26,5.94,13.26,13.26v34.08h16.15c3.52,0,6.89,1.39,9.37,3.89,2.48,2.48,3.89,5.86,3.89,9.38v69.35c0,7.32-5.94,13.26-13.26,13.26H95.86c-7.32,0-13.26-5.94-13.26-13.26v-69.35c0-7.32,5.94-13.26,13.26-13.26h19.39v-34.08c0-7.32,5.94-13.26,13.26-13.26h1.96v-39.6c0-7.32,5.94-13.26,13.26-13.26h4.09v-274.89h-10.4c-7.32,0-13.26-5.94-13.26-13.26v-41.18h-19.1c-7.32,0-13.26-5.94-13.26-13.26v-79.63l-78.56-.17c-6-.01-11.26-4.05-12.79-9.86-1.54-5.81,1.01-11.91,6.21-14.9L470.86,1.75c4.09-2.34,9.11-2.34,13.2,0l464.2,266.35c5.21,2.99,7.77,9.11,6.21,14.9h0ZM118.33,359.4h257.83c-14.64-18.52-24.34-41.11-26.89-65.82l-230.94-.49v66.31ZM577.7,280.34c0-55.85-45.45-101.29-101.29-101.29s-99.11,43.43-101.1,97.54c.05.46.28.84.28,1.31,0,.83-.31,1.55-.46,2.34v.11c0,55.86,45.44,101.29,101.29,101.29s101.29-45.45,101.29-101.29h-.01ZM433.2,768.14h102.88v-23.98h-102.88v23.98ZM512.41,442.74h-61.85v274.89h61.85v-274.89ZM529.77,396.33c-16.26,7.51-34.3,11.82-53.35,11.82-17.6,0-34.39-3.57-49.66-10.04v18.1h103.02v-19.87h-.01ZM161.12,413.84h92.47v-23.98h-102.88v23.98h10.41ZM174.38,715.27h61.85v-274.89h-61.85v274.89ZM157.02,765.77h102.88v-23.98h-102.88v23.98ZM286.43,728.53v39.6h120.24v-37.23c0-7.32,5.94-13.26,13.26-13.26h4.09v-274.89h-10.55c-7.32,0-13.26-5.94-13.26-13.26v-43.81c-.45.05-.84.27-1.31.27h-118.8v41.18c0,7.32-5.94,13.26-13.26,13.26h-4.09v274.89h10.4c7.32,0,13.26,5.94,13.26,13.26h.01ZM856.9,842H128.52s-19.39,0-19.39,0v42.83h747.74v-42.83h.03ZM497.17,815.48h330.32v-20.82H141.79s0,20.82,0,20.82h355.38ZM803.44,738.64h-92.47v23.98h102.88v-23.98h-10.41ZM790.18,437.21h-61.85v274.89h61.85v-274.89ZM807.54,386.71h-103.02v23.98h103.02v-23.98ZM678,423.94v-38.03h-121.68v43.55c0,7.32-5.94,13.26-13.26,13.26h-4.09v274.89h10.4c7.32,0,13.26,5.94,13.26,13.26v37.23h121.82v-42.76c0-7.32,5.94-13.26,13.26-13.26h4.09v-274.89h-10.55c-7.32,0-13.26-5.94-13.26-13.26h0ZM836.72,293.07l-233.16.49c-2.55,24.72-12.25,47.3-26.89,65.82h260.05v-66.31ZM892.11,266.43L477.47,28.55,62.86,266.45l40.81.09c.46-.05.85-.28,1.33-.28l244.64-1.46c7.71-63.16,61.57-112.27,126.78-112.27s119.06,49.11,126.78,112.26l246.85,1.48c.47,0,.86.23,1.32.28l40.73-.09v-.02Z"/>
</svg>