<?xml version="1.0" encoding="UTF-8"?>
<svg id="_迹_1" data-name="卵迹_1" xmlns="http://www.w3.org/2000/svg" viewBox="0 0 559.54 87.47">
  <defs>
    <style>
      .cls-1 {
        fill: #e89256;
      }

      .cls-1, .cls-2, .cls-3, .cls-4, .cls-5, .cls-6, .cls-7, .cls-8, .cls-9, .cls-10 {
        stroke-width: 0px;
      }

      .cls-2 {
        fill: #efae73;
      }

      .cls-3 {
        fill: #e8a46b;
      }

      .cls-4 {
        fill: #a35521;
      }

      .cls-5 {
        fill: #d38e4b;
      }

      .cls-6 {
        fill: #ce8345;
      }

      .cls-7 {
        fill: #dea063;
      }

      .cls-8 {
        fill: #ba7538;
      }

      .cls-9 {
        fill: #d69b61;
      }

      .cls-10 {
        fill: #e08c4c;
      }
    </style>
  </defs>
  <path class="cls-8" d="M8.13,41.53c.09-.11,1.48-1.16,3.22-2.45-1.53.75-2.56,1.57-3.22,2.45Z"/>
  <path class="cls-8" d="M19.01,38.98c-.09-.72-.18-1.43-.27-2.15,0,0-.01,0-.02,0l.38,2.91c-.03-.26-.06-.51-.09-.77Z"/>
  <path class="cls-4" d="M524.76,43.11c-.12.02-.24.04-.36.06-1.15.19-2.31.39-3.46.59-1.37.24-2.74.47-4.1.72-.22.04-.44.08-.65.12-1.34.24-2.68.48-4.01.72,0,0,0,0,0,0,1.36.08,2.71.15,4.07.22,1.93.1,3.86.21,5.79.31.25.01.5.03.74.04,1.73.09,3.47.18,5.2.27.73.04,1.45.07,2.18.11,1.33.07,2.65.13,3.98.2,2.15.1,4.3.21,6.45.31,2.06-.28,4.11-.56,6.18-.83l10.21-7.61c-2.26.29-4.51.6-6.76.91-8.54,1.18-17.02,2.47-25.46,3.88Z"/>
  <path class="cls-8" d="M556.96,37.71c0,.2.01.41.02.61.01-.19,0-.39-.02-.61Z"/>
  <path class="cls-8" d="M559.51,78.8c0,.05.02.1.03.15,0-.04-.01-.09-.03-.15Z"/>
  <polygon class="cls-8" points="19.97 63 20.66 56.49 14.87 60.8 10.44 64.1 13.14 71.65 19.97 63"/>
  <path class="cls-8" d="M19.13,39.93h0s-.01-.1-.01-.1v-.08s-.39-2.91-.39-2.91l-.38-2.91s-4,2.93-6.99,5.16c-1.73,1.29-3.13,2.34-3.22,2.45l10.99-1.6h0Z"/>
  <path class="cls-8" d="M15.72,23.46h0c-.03-.08-.06-.16-.08-.23-.04-.1-.08-.21-.11-.31-.18-.5-.36-.99-.55-1.49-.31-.8-.62-1.6-.96-2.4,0,0,0,0,0,0-.21-.49-.42-.99-.63-1.48-.12-.26-.23-.53-.35-.79-.12-.28-.25-.56-.38-.84-.06-.12-.11-.25-.17-.37-.14-.3-.29-.6-.43-.91-.09-.19-.18-.38-.27-.57h0c-.25-.51-.5-1.01-.75-1.52,0-.02-.02-.03-.02-.05-.26-.52-.53-1.04-.8-1.56,0,0-10.21,7.61-10.16,7.6.02,0-.04,0-.05,0,2.16,4.12,4.04,8.29,5.51,12.51l10.21-7.61h0Z"/>
  <path class="cls-8" d="M19.65,79.84c.08-.47.15-.94.22-1.41v-.07c.08-.46.14-.93.2-1.39.08-.64.16-1.27.23-1.91,0-.05.01-.1.02-.15.06-.53.11-1.05.15-1.58.03-.36.06-.72.09-1.08.01-.15.02-.3.03-.45.03-.47.06-.94.09-1.41,0-.03,0-.06,0-.09.03-.5.05-1.01.07-1.51,0-.2.02-.39.03-.59.05-.25.09-.49.13-.74.04-.24.07-.49.1-.73,0,0,0,0,0,0,.02-.18.04-.36.06-.54,0-.07.01-.14.02-.21.01-.16.02-.32.03-.47,0-.09,0-.19.01-.28,0-.14.01-.29.01-.43,0-.11,0-.22,0-.33,0-.13,0-.26,0-.39h0c0-.19-.02-.37-.04-.55,0-.11-.02-.23-.03-.34,0-.03,0-.07-.01-.1-.03-.27-.07-.53-.13-.79,0,0,0,0,0,0-.03-.15-.06-.3-.09-.45-.01-.85-.04-1.7-.07-2.55-.03-.77-.06-1.54-.1-2.31,0-.1,0-.2-.01-.31,0-.06,0-.12,0-.19l-.69,6.51-6.83,8.65-2.69-7.55c.09,1.78.16,3.57.19,5.35.48,1.96.36,4.16-.06,6.35-.08,2.24-.23,4.48-.47,6.71-.17,1.65-.4,3.31-.67,4.96l10.21-7.61s0,0,0-.01Z"/>
  <path class="cls-8" d="M20.19,49.93c-.11-1.22-.22-2.43-.35-3.64-.11-1.09-.23-2.18-.35-3.27,0,0,0-.02,0-.03-.12-1.02-.23-2.04-.36-3.06l-10.99,1.6c.25,1.68.46,3.37.67,5.05.49,4.05.94,8.09,1.28,12.14l10.21-7.61c-.03-.4-.07-.8-.11-1.19Z"/>
  <path class="cls-4" d="M559.35,78.95s-.05,0-.07,0c-.05,0-.1,0-.15,0-.03,0-.06,0-.09,0-.06,0-.13,0-.2,0-.03,0-.07,0-.1,0-.08,0-.16,0-.25,0-.05,0-.11,0-.17,0-.05,0-.09,0-.14,0-.07,0-.15,0-.23,0-.02,0-.05,0-.08,0-1.25-.05-3.06-.12-5.41-.22-.21,0-.41-.02-.63-.03-.08,0-.16,0-.24,0-.52-.02-1.07-.04-1.64-.07-.16,0-.31-.01-.47-.02-.09,0-.17,0-.26-.01-.23,0-.46-.02-.69-.03-.12,0-.24,0-.36-.01-.25-.01-.5-.02-.76-.03-.04,0-.08,0-.12,0-.26-.01-.53-.02-.8-.03-.1,0-.19,0-.29-.01-1.01-.04-2.06-.08-3.17-.13,0,0,0,0,0,0-8.87-.36-21-.83-35.87-1.34-.02,0-.04,0-.06,0-.64-.02-1.28-.04-1.93-.07-.52-.02-1.05-.04-1.58-.05-8.1-.28-16.95-.57-26.47-.86h-.04c-.93-.03-1.87-.06-2.81-.09-.05,0-.09,0-.14,0-1.85-.06-3.73-.11-5.63-.17-.11,0-.22,0-.33,0-1.88-.05-3.78-.11-5.71-.16-.09,0-.18,0-.27,0-.97-.03-1.95-.05-2.93-.08h-.18c-.64-.02-1.28-.04-1.93-.06-.1,0-.19,0-.29,0-.62-.02-1.23-.03-1.85-.05-.11,0-.23,0-.34,0-.63-.02-1.26-.03-1.89-.05-.08,0-.17,0-.25,0-.68-.02-1.36-.04-2.04-.05-.04,0-.09,0-.13,0-.72-.02-1.45-.04-2.18-.06-.01,0-.03,0-.04,0-3-.08-6.04-.16-9.13-.23-.03,0-.07,0-.1,0-.73-.02-1.45-.04-2.18-.05-.07,0-.13,0-.2,0-.7-.02-1.4-.03-2.1-.05-.09,0-.18,0-.26,0-.7-.02-1.4-.03-2.1-.05-.08,0-.15,0-.23,0-.74-.02-1.49-.04-2.23-.05-.03,0-.06,0-.09,0-3.98-.09-8.02-.19-12.13-.28-.01,0-.03,0-.04,0-.8-.02-1.59-.03-2.4-.05-.05,0-.09,0-.14,0-.77-.02-1.54-.03-2.32-.05-.06,0-.12,0-.19,0-.78-.02-1.57-.03-2.36-.05-.03,0-.07,0-.1,0-6.69-.14-13.54-.27-20.53-.4-.03,0-.06,0-.09,0-.83-.02-1.67-.03-2.51-.04-.05,0-.09,0-.14,0-1.75-.03-3.5-.06-5.26-.09-2.27-.04-4.55-.08-6.84-.11h0c-2.26-.04-4.53-.07-6.81-.1-.06,0-.13,0-.19,0-1.7-.03-3.4-.05-5.11-.07-.03,0-.07,0-.1,0-1.74-.02-3.48-.05-5.23-.07,0,0,0,0,0,0-10.61-.14-21.47-.26-32.54-.35-3.35-.03-6.71-.05-10.1-.08-4.47-.03-8.97-.05-13.5-.08-.02,0-.04,0-.05,0-4.51-.02-9.04-.04-13.6-.05-.05,0-.11,0-.16,0-4.53,0-9.09-.01-13.67-.01h-.23c-4.57,0-9.16,0-13.77.02-.08,0-.16,0-.25,0-2.3,0-4.61.01-6.92.02-.02,0-.05,0-.07,0-2.29,0-4.58.02-6.88.03-.09,0-.19,0-.28,0-2.3.01-4.6.03-6.91.04-.07,0-.14,0-.21,0-2.29.02-4.58.03-6.88.05h-.22c-2.31.02-4.62.04-6.93.06-.11,0-.23,0-.34,0-2.3.02-4.6.04-6.91.07h-.13c-2.32.03-4.65.05-6.98.08h-.4c-2.34.03-4.67.06-7.02.09-1.35.02-2.69.04-4.04.06-1.61.02-3.21.04-4.83.07-1.68.03-3.35.05-5.03.08-.07,0-.13,0-.2,0-1.61.03-3.22.05-4.82.08-.16,0-.33,0-.49,0-1.58.03-3.15.06-4.73.09-.17,0-.35,0-.52,0-1.6.03-3.19.06-4.79.09-.12,0-.23,0-.35,0-5.12.1-10.24.21-15.37.33,0,0,0,0,0,0-1.72.04-3.45.08-5.17.12h-.06c-41.62,1.02-83.38,2.66-123.65,5.13-2.78.17-5.55.34-8.31.52-.03,0-.06,0-.08,0l-10.21,7.61c236.05-15.21,528.06-1.24,539.89-.9l10.21-7.61c-.05,0-.12,0-.18,0Z"/>
  <path class="cls-4" d="M23.19,30.78c.08-.03.15-.06.23-.08.16-.06.32-.11.48-.16.09-.03.18-.06.27-.09.16-.05.33-.1.5-.15.39-.12.78-.23,1.17-.33.08-.02.16-.04.24-.06.24-.06.49-.12.73-.18.1-.02.19-.05.29-.07.24-.06.48-.11.72-.17.09-.02.17-.04.26-.06.3-.07.61-.14.91-.2.01,0,.02,0,.04,0,2.94-.65,5.89-1.28,8.84-1.92.65-.14,1.3-.28,1.95-.42.42-.09.84-.18,1.26-.27.89-.19,1.78-.39,2.67-.58.65-.14,1.31-.28,1.96-.42.39-.08.78-.17,1.16-.25,2.96-.64,5.92-1.28,8.88-1.92l-32.05.03h-7.97s-.01,0-.01,0l-10.21,7.61,17-.02h0c.22-.09.45-.18.68-.27Z"/>
  <path class="cls-4" d="M30.18,55.39c-3.3-1.42-6.59-2.84-9.89-4.27l-10.21,7.61c1.6.69,3.2,1.38,4.79,2.07l5.79-4.31c3.17-.37,6.35-.73,9.52-1.1Z"/>
  <path class="cls-6" d="M46.85,16.85c1.16-.06,2.33-.11,3.49-.16,9.31-.41,18.64-.69,27.97-.82-.55-.46-1.09-.92-1.63-1.38-.05-.04-.09-.08-.14-.12-1.33.02-2.66.05-3.99.07-2.28.05-4.55.1-6.83.16-.23,0-.46.01-.7.02-3.59.1-7.19.22-10.78.37-10.77.43-21.52,1.05-32.23,1.86.15.49.3.99.44,1.5,1.16-.09,2.32-.17,3.48-.25,6.95-.5,13.92-.91,20.9-1.25Z"/>
  <path class="cls-6" d="M508.42,17.15c-1.16.03-2.32.05-3.48.09-2.65.07-5.3.17-7.95.28-9.26.4-18.49,1.07-27.61,2.17-1.75.21-3.48.44-5.22.68-.67.09-1.34.19-2.01.29.19.13.38.26.57.39.48.33.95.66,1.42,1,.37-.05.73-.09,1.1-.14,4.69-.6,9.4-1.11,14.12-1.54,1.22-.11,2.43-.22,3.65-.32,2.11-.17,4.22-.33,6.33-.47,8.46-.57,16.99-.89,25.63-.99,4.27-.05,8.54-.07,12.81-.07,7.12,0,14.24.08,21.36.22-.02-.49-.04-.99-.06-1.48-5.42-.11-10.85-.19-16.28-.22-8.11-.05-16.25-.04-24.38.14Z"/>
  <path class="cls-6" d="M499.98,10.2c-1.19-.05-2.38-.09-3.57-.13-15.46-.55-30.93-.84-46.4-1.01-2.38-.03-4.76-.05-7.14-.07.96.51,1.91,1.03,2.86,1.55,3.23.03,6.46.06,9.69.1,1.61.02,3.23.04,4.84.06,8.07.11,16.15.26,24.22.5,8.64.26,17.27.58,25.9.96,12.89.56,25.77,1.25,38.64,2,0-.2,0-.41,0-.61,0-.3,0-.6,0-.91-13.92-.82-27.86-1.55-41.82-2.14-2.4-.1-4.81-.2-7.21-.29Z"/>
  <path class="cls-6" d="M26.04,14.18c13.43-1.23,26.91-2.12,40.43-2.68,2.19-.09,4.38-.17,6.57-.25-.57-.53-1.14-1.06-1.7-1.59-3.64.13-7.29.29-10.92.48-1.32.07-2.64.14-3.95.21-.33.02-.65.04-.98.05h0c-9.85.83-19.35,2.26-29.44,3.78Z"/>
  <path class="cls-6" d="M474.45,5.07c-1.03-.02-2.07-.04-3.1-.07-12.52-.26-25.05-.41-37.57-.62.96.46,1.91.92,2.86,1.39.35.17.7.35,1.05.52,2.93.05,5.86.09,8.79.13,2.93.04,5.86.08,8.79.13,2.93.04,5.86.09,8.79.14s5.86.1,8.78.16c4.39.09,8.78.19,13.17.31,2.93.08,5.85.17,8.78.28,2.92.1,5.85.22,8.77.35,1.46.06,2.92.13,4.38.2,13.75.67,27.45,1.48,41.1,2.53,0-.38.01-.76.03-1.14-19.54-1.43-39.05-2.92-58.68-3.89-1.49-.05-2.97-.09-4.46-.14-3.82-.11-7.65-.21-11.47-.29Z"/>
  <path class="cls-6" d="M525.42,21.53c-1.31,0-2.63.01-3.94.03-9.2.1-18.39.43-27.58,1-3.28.21-6.55.44-9.82.69-5.45.42-10.88.9-16.3,1.42.37.27.73.55,1.09.82.05.04.25.19.4.3.1.08.2.16.3.24,1.57-.15,3.14-.3,4.72-.44,4.45-.4,8.91-.76,13.37-1.07,1.49-.1,2.97-.2,4.46-.3,10.41-.66,20.84-1.06,31.3-1.16,1.49-.02,2.99-.02,4.48-.03,1.5,0,2.99,0,4.49.01,2.24.01,4.49.04,6.74.09,1.5.03,3,.06,4.5.11.75.02,1.5.04,2.25.07,1.17.04,2.33.08,3.5.12-.03-.5-.06-1.01-.09-1.51-4.01-.15-8.03-.25-12.05-.32-3.94-.07-7.88-.09-11.83-.08Z"/>
  <path class="cls-6" d="M70.79,19.27c-1.32,0-2.65,0-3.97,0h-.02c-2.62,0-5.24.02-7.86.05-2.67.03-5.34.08-8.01.14-9.29.22-18.57.65-27.82,1.32.12.5.24,1.01.35,1.52,13.88-.99,27.83-1.44,41.79-1.49,3.61-.01,7.23,0,10.85.04,2.89.03,5.79.08,8.68.14-.69-.52-1.38-1.05-2.05-1.58-3.97-.08-7.95-.13-11.92-.15Z"/>
  <path class="cls-6" d="M45.71,26.01c9.79.02,19.71.54,29.46.86,6.29.21,12.57.44,18.85.71-.49-.33-.98-.66-1.47-1-.69-.47-1.37-.94-2.04-1.41-10.62-.32-21.21-.3-31.84-.14-.53,0-1.06.02-1.6.03-3.72.1-7.42.35-11.12.51-.08,0-.17,0-.25.01-.65.14-1.31.28-1.96.42.65,0,1.3,0,1.96,0Z"/>
  <path class="cls-6" d="M518.53,53.01c-8.3-.72-16.58-1.52-24.85-2.36.82,1.23,1.61,2.47,2.35,3.72,13.47,1.32,26.98,2.5,40.56,3.36,2.69.17,5.39.33,8.09.48,1.8.1,3.6.19,5.41.28.11,0,.21.01.32.02,0-1.07-.01-2.14-.02-3.22-8.27-.44-16.52-1.02-24.75-1.68-2.37-.19-4.75-.39-7.12-.6Z"/>
  <path class="cls-6" d="M491.94,48.2h0c6.09.58,12.19,1.12,18.3,1.62,2.04.17,4.07.33,6.11.49.7.06,1.41.11,2.11.17,1.41.11,2.82.22,4.23.33,1.41.11,2.83.21,4.24.31.88.06,1.77.12,2.65.19,6.19.42,12.4.76,18.62.93.71.02,1.42.04,2.13.05.01,0,.02,0,.04,0,0-.64,0-1.27,0-1.91-1.71,0-3.42-.03-5.13-.08-1.39-.03-2.78-.08-4.17-.13-2.78-.11-5.55-.25-8.32-.41-4.16-.24-8.31-.53-12.45-.83-1.24-.09-2.49-.18-3.73-.28-8.7-.66-17.37-1.43-26.03-2.28.24.31.48.61.72.92.23.3.46.61.69.92Z"/>
  <path class="cls-6" d="M521.57,26.96c-5.71,0-11.42.08-17.12.28-2.6.09-5.2.2-7.8.33-7.79.37-15.55.89-23.3,1.51.24.19.47.39.71.58.66.55,1.31,1.11,1.95,1.67,3.05-.25,6.1-.48,9.15-.7,1.02-.07,2.04-.14,3.06-.21,2.04-.14,4.08-.27,6.12-.39s4.08-.24,6.12-.34c1.86-.1,3.73-.19,5.59-.27,7.47-.35,14.97-.61,22.46-.62.62,0,1.25,0,1.87,0,5.61.02,11.23.14,16.83.35.4.02.8.03,1.2.05.44.02.88.04,1.32.06-.03-.54-.07-1.09-.1-1.63-4.91-.33-9.87-.45-14.75-.54-4.44-.08-8.88-.13-13.32-.13Z"/>
  <path class="cls-6" d="M535.77,33.5c-.45.02-.89.03-1.33.05-17.96.59-35.92,1.24-53.88,1.93.66.64,1.32,1.27,1.96,1.92,6.29-.22,12.59-.44,18.88-.66,9.32-.33,18.63-.66,27.95-.99,2.96-.1,5.93-.24,8.89-.35,1.48-.06,2.97-.11,4.45-.15,2.46-.07,4.91-.12,7.37-.11-.03-.64-.06-1.28-.1-1.91-4.82-.06-9.68.13-14.21.29Z"/>
  <path class="cls-6" d="M454.83,14.5c.3,0,.61,0,.91,0,.2,0,.41,0,.61,0,.4,0,.81.02,1.21.03.2,0,.4.02.6.03.23.01.46.03.69.04.31.02.62.05.94.08.86.08,1.71.19,2.56.33.37.06.74.14,1.1.22-1.51.04-3.03.09-4.54.15-1.51.06-3.03.12-4.54.2.84.52,1.67,1.04,2.5,1.57.12,0,.23-.01.35-.02.79-.04,1.58-.07,2.37-.1.62-.03,1.25-.05,1.87-.08,1.09-.04,2.18-.08,3.27-.11,1.12-.04,2.24-.07,3.37-.11.09,0,.17,0,.25-.02.09-.01.18-.03.25-.05.56-.13.83-.45.8-.77,0-.08-.04-.16-.08-.24-.1-.16-.28-.31-.54-.43-.16-.07-.33-.15-.49-.21-.5-.21-1.01-.39-1.53-.56-.17-.06-.35-.11-.52-.16-2.8-.82-5.86-1.1-8.98-1.12-2.14,0-4.32.11-6.45.27.64.37,1.27.75,1.9,1.13.71-.03,1.42-.05,2.13-.06Z"/>
  <path class="cls-6" d="M43.23,45.17c3.47-.16,6.94-.3,10.42-.44,13.17-.53,26.35-.96,39.54-1.31,1.88-.05,3.77-.1,5.65-.14,1.78-.04,3.56-.08,5.34-.12,1.78-.03,3.56-.07,5.35-.09,3.56-.06,7.13-.1,10.7-.14-.97-.5-1.92-1-2.88-1.5-3.62.1-7.23.2-10.85.31-3.62.11-7.23.22-10.85.33-7.23.22-14.46.45-21.7.68-3.94.12-7.89.25-11.83.37-3.94.13-7.89.26-11.83.39-7.89.27-15.77.55-23.65.85.16-.02.32-.04.48-.06,5.57-.69,11.16-1.29,16.78-1.81,6.16-.57,12.34-1.03,18.52-1.38,2.06-.12,4.13-.23,6.19-.33,2.36-.11,4.72-.21,7.08-.29,2.07-.07,4.14-.14,6.21-.19,6.21-.16,12.43-.24,18.66-.25,3.67,0,7.42,0,11.14.16,1.24.05,2.48.12,3.72.2-1.43-.77-2.85-1.55-4.26-2.33-.58-.03-1.15-.06-1.73-.09-1.73-.08-3.47-.13-5.2-.17-9.84-.19-19.72,0-29.54.4-4.15.17-8.29.38-12.43.63-12.07.74-24.08,1.84-35.98,3.29.12,1.27.24,2.55.34,3.82,1.8-.09,3.59-.17,5.39-.26,3.73-.18,7.47-.35,11.2-.52Z"/>
  <path class="cls-6" d="M36.86,36.1c1.53-.13,3.06-.26,4.6-.38,6.33-.49,12.69-.83,19.06-1,2.12-.06,4.25-.09,6.38-.11.79,0,1.57,0,2.36,0,11.81,0,23.58.66,35.34,1.25.49.02.98.05,1.46.07.49.02.98.05,1.46.07-1.46-.84-2.9-1.7-4.32-2.56-1.3-.07-2.61-.13-3.91-.2-8.46-.43-16.92-.82-25.4-.92-.67,0-1.34-.01-2.01-.02-.79,0-1.57,0-2.36,0,0,0-.01,0-.02,0-1.56,0-3.13.01-4.69.04-7.26.11-14.5.46-21.71.99-2.92.21-5.84.46-8.75.72-2.95.27-5.9.57-8.83.9.09.75.18,1.49.26,2.24,1.4-.15,2.8-.3,4.2-.44,2.29-.23,4.58-.45,6.87-.65Z"/>
  <path class="cls-6" d="M41.14,50.99c1.78-.12,3.56-.25,5.34-.38,6.23-.45,12.45-.91,18.66-1.28.86-.05,1.73-.1,2.59-.15,5.43-.31,10.88-.57,16.33-.69.07,0,.14,0,.2,0,.8-.02,1.6-.03,2.4-.04.8-.01,1.6-.02,2.4-.03,3.6-.04,7.19-.04,10.79-.08,1.2-.01,2.4-.02,3.6-.04,5.16-.08,10.28-.33,15.38-.71.51-.04,1.02-.08,1.53-.12,2.54-.2,5.08-.43,7.61-.69-.92-.44-1.84-.89-2.76-1.34-4.09.37-8.2.66-12.33.85-1.38.06-2.76.11-4.14.15-12.74.33-25.48-.13-38.21.51-10.22.51-20.39,1.33-30.59,2-2.35.16-4.71.3-7.06.44-.19.01-.38.02-.58.03-1.78.1-3.56.19-5.35.27.06.72.11,1.43.17,2.15,4.68-.23,9.35-.52,14.03-.85Z"/>
  <path class="cls-6" d="M504.51,65.32c-1.12-.09-2.24-.17-3.36-.26.14.38.27.77.4,1.15.14.42.27.84.4,1.27h0c3.52.29,7.04.56,10.56.82,1.18.09,2.35.17,3.53.26,1.44.1,2.88.21,4.32.31,10.07.7,20.17,1.3,30.29,1.79-.03-.84-.06-1.69-.08-2.53-4.8-.22-9.59-.47-14.38-.73-1.6-.09-3.19-.18-4.79-.27-8.98-.52-17.95-1.12-26.89-1.81Z"/>
  <path class="cls-6" d="M65.73,57.67c1.65-.1,3.29-.21,4.94-.32,11.52-.77,22.98-1.74,34.36-2.88,5.33-.53,10.66-1.1,15.98-1.7,1.46-.16,2.92-.33,4.37-.49,3.86-.44,7.72-.89,11.58-1.35-1.36-.61-2.71-1.22-4.05-1.84-3.62.43-7.25.85-10.87,1.27-2.42.28-4.84.55-7.27.81-1.47.16-2.94.31-4.41.47-1.71.18-3.42.35-5.13.52-2.65.26-5.3.51-7.95.75-1.37.12-2.73.25-4.1.36-13.75,1.19-27.53,2.11-41.35,2.74-1.97.09-3.95.18-5.92.26-6.14.25-12.29.44-18.44.58.05.78.11,1.57.15,2.35,10.95-.19,21.91-.61,32.82-1.22,1.76-.1,3.52-.2,5.27-.31Z"/>
  <path class="cls-6" d="M503.59,76.74s0,.05,0,.08c.53.02,1.06.04,1.58.05-.53-.04-1.06-.09-1.58-.13Z"/>
  <path class="cls-6" d="M130.52,60.7c-32.77,2.93-65.82,5.6-98.97,5.98-1.18.01-2.37.02-3.55.03.02.71.05,1.43.07,2.14,11.06.06,22.11-.19,33.14-.65,2.55-.11,5.09-.22,7.64-.35,6.4-.32,12.8-.71,19.19-1.15,2.13-.15,4.26-.3,6.39-.45,3.19-.23,6.38-.48,9.57-.73,2.13-.17,4.25-.34,6.38-.52,4.25-.35,8.49-.72,12.74-1.09,3.1-.27,6.2-.55,9.29-.83,6.2-.56,12.39-1.13,18.6-1.69,3.1-.28,6.2-.56,9.3-.84-1.79-.68-3.58-1.37-5.35-2.07-4.64.42-9.27.84-13.91,1.26-3.51.32-7.01.63-10.52.95Z"/>
  <path class="cls-6" d="M30.37,63.97c1.54-.03,3.08-.07,4.61-.12,1.54-.05,3.07-.1,4.61-.16,6.14-.23,12.26-.55,18.32-.91,19.14-1.13,38.14-2.91,57.11-4.77,10.32-1.01,20.63-2.09,30.94-3.17-1.35-.56-2.69-1.13-4.02-1.71-3.78.41-7.55.83-11.32,1.24-11.74,1.29-23.51,2.53-35.31,3.64-1.69.16-3.37.31-5.06.47-14.23,1.28-28.52,2.35-42.86,3.03-6.52.31-13.05.54-19.59.68.03.61.06,1.22.09,1.83.06,0,.11,0,.17,0,.77-.01,1.54-.03,2.31-.04Z"/>
  <path class="cls-6" d="M542.54,74.51c-3.31-.25-6.61-.51-9.91-.77-9.91-.78-19.81-1.6-29.71-2.47.01.08.03.15.05.23.1.55.19,1.1.28,1.66,4.66.42,9.33.83,14,1.23,2.81.24,5.62.48,8.43.71,8.43.7,16.87,1.37,25.31,2-.04-.66-.08-1.32-.12-1.97-.03,0-.06,0-.09,0-2.74-.2-5.49-.4-8.22-.61Z"/>
  <path class="cls-6" d="M98.58,71.52c-1.76.07-3.52.15-5.28.22-14,.62-28,1.26-42,1.94-1.29.06-2.58.12-3.87.18-3.97.18-7.95.34-11.92.51-2.46.1-4.93.2-7.39.31,0,.67-.01,1.34-.02,2.01,7.32-.26,14.64-.53,21.96-.82,10.32-.4,20.64-.82,30.96-1.24,5.52-.22,11.04-.45,16.57-.68,8.19-.34,16.38-.67,24.57-1.02,13.16-.55,26.33-1.15,39.4-2.27,3.31-.28,6.59-.63,9.86-1,.34-.04.67-.08,1.01-.12,1.54-.18,3.08-.37,4.62-.57,1.71-.22,3.41-.44,5.12-.68-1.78-.59-3.56-1.19-5.33-1.79-.64.08-1.29.17-1.93.25-25.02,3.12-50.84,3.72-76.32,4.77Z"/>
  <path class="cls-9" d="M132.41,63.1c-3.1.28-6.2.56-9.29.83-4.24.37-8.49.74-12.74,1.09-2.12.18-4.25.35-6.38.52-3.19.25-6.38.5-9.57.73-2.13.16-4.26.31-6.39.45-6.39.44-12.79.82-19.19,1.15-2.55.13-5.09.25-7.64.35-11.04.46-22.09.7-33.14.65.05,1.94.07,3.89.06,5.83,2.46-.11,4.92-.21,7.39-.31,3.98-.16,7.95-.33,11.92-.51,1.29-.06,2.58-.12,3.87-.18,14-.67,27.99-1.32,42-1.94,1.76-.08,3.52-.15,5.28-.22,25.48-1.05,51.3-1.65,76.32-4.77.64-.08,1.29-.16,1.93-.25h0c-5.57-1.9-11.09-3.88-16.52-5.94-3.1.28-6.2.56-9.3.84-6.2.57-12.4,1.13-18.6,1.69Z"/>
  <path class="cls-9" d="M111.72,40.2c-3.73-.15-7.48-.17-11.14-.16-6.23,0-12.45.09-18.66.25-2.07.05-4.14.12-6.21.19-2.36.09-4.72.18-7.08.29-2.07.1-4.13.21-6.19.33-6.19.36-12.36.82-18.52,1.38-5.62.52-11.21,1.12-16.78,1.81-.16.02-.32.04-.48.06,7.88-.3,15.76-.58,23.65-.85,3.94-.13,7.89-.26,11.83-.39,3.94-.13,7.89-.25,11.83-.37,7.23-.22,14.46-.45,21.7-.68,3.62-.11,7.23-.22,10.85-.33,3.62-.11,7.23-.21,10.85-.31-.64-.34-1.28-.68-1.92-1.02-1.23-.09-2.47-.15-3.72-.2Z"/>
  <path class="cls-9" d="M433.77,4.39c12.53.21,25.06.36,37.57.62,1.03.02,2.07.04,3.1.07,3.82.08,7.65.18,11.47.29,1.49.04,2.97.09,4.46.14-.14,0-.27-.01-.41-.02-19.17-.94-38.39-1.48-57.62-1.76.47.22.95.45,1.42.68h0Z"/>
  <path class="cls-9" d="M484.48,11.19c-8.07-.24-16.14-.39-24.22-.5-1.61-.02-3.23-.04-4.84-.06-3.23-.04-6.46-.07-9.69-.1,1.72.95,3.42,1.92,5.08,2.9,2.14-.16,4.31-.28,6.45-.27,3.12.01,6.18.29,8.98,1.12.17.05.35.1.52.16.52.17,1.03.35,1.53.56.17.07.33.14.49.21.26.12.44.27.54.43.05.08.08.16.08.24.03.32-.25.64-.8.77-.08.02-.16.03-.25.05-.08.01-.17.02-.25.02-1.12.04-2.24.08-3.37.11-1.09.04-2.18.07-3.27.11-.62.02-1.25.05-1.87.08-.79.03-1.58.07-2.37.1-.12,0-.23.01-.35.02,1.8,1.15,3.56,2.32,5.29,3.51.67-.1,1.34-.19,2.01-.29,1.73-.24,3.47-.47,5.22-.68,9.12-1.09,18.34-1.77,27.61-2.17,2.65-.11,5.3-.21,7.95-.28,1.16-.03,2.32-.06,3.48-.09,8.13-.18,16.27-.19,24.38-.14,5.43.03,10.85.11,16.28.22-.03-1.03-.06-2.06-.07-3.09h0c-12.87-.75-25.75-1.44-38.64-2-8.63-.38-17.26-.7-25.9-.96Z"/>
  <path class="cls-9" d="M21.1,14.93s-.1.01-.15.02c.17.36.19.25.15-.02Z"/>
  <path class="cls-9" d="M65.03,14.62c.23,0,.46-.01.7-.02,2.27-.06,4.55-.12,6.83-.16,1.33-.03,2.66-.05,3.99-.07-1.19-1.02-2.36-2.06-3.5-3.11-2.19.07-4.38.16-6.57.25-13.52.56-27,1.44-40.43,2.68h0c-1.58.15-3.17.3-4.75.45.03.08.06.17.09.25.23.64.44,1.3.65,1.97,10.71-.81,21.46-1.43,32.23-1.86,3.59-.14,7.18-.27,10.78-.37Z"/>
  <path class="cls-9" d="M503.54,7.79c-2.92-.13-5.85-.24-8.77-.35-2.92-.1-5.85-.19-8.78-.28-4.39-.12-8.78-.22-13.17-.31-2.93-.06-5.86-.11-8.78-.16s-5.86-.09-8.79-.14c-2.93-.04-5.86-.08-8.79-.13-2.93-.04-5.86-.08-8.79-.13,1.75.88,3.48,1.77,5.18,2.67,2.38.02,4.76.05,7.14.07,15.48.17,30.94.46,46.4,1.01,1.19.04,2.38.09,3.57.13,2.4.09,4.81.19,7.21.29,13.96.59,27.89,1.32,41.82,2.14,0-.7,0-1.4.03-2.1-13.66-1.06-27.35-1.86-41.1-2.53-1.46-.07-2.92-.14-4.38-.2Z"/>
  <path class="cls-9" d="M60.41,10.14c3.64-.18,7.28-.34,10.92-.48-.02-.02-.05-.05-.07-.07-1.7.06-3.39.11-5.09.17-3.64.12-7.19.35-10.7.64.33-.02.65-.04.98-.05,1.32-.07,2.64-.14,3.95-.21Z"/>
  <path class="cls-9" d="M62.28,38.84c4.14-.25,8.28-.46,12.43-.63,9.82-.39,19.7-.59,29.54-.4,1.73.03,3.47.09,5.2.17.58.03,1.15.06,1.73.09-1.23-.68-2.44-1.38-3.64-2.07-.49-.02-.98-.05-1.46-.07-.49-.02-.98-.05-1.46-.07-11.76-.59-23.53-1.25-35.34-1.25-.79,0-1.57,0-2.36,0-2.13.02-4.25.05-6.38.11-6.37.17-12.73.52-19.06,1-1.53.12-3.07.24-4.6.38-2.3.2-4.59.42-6.87.65-1.4.14-2.8.29-4.2.44.18,1.65.35,3.29.51,4.94h0c11.89-1.45,23.9-2.55,35.98-3.29Z"/>
  <path class="cls-9" d="M32.87,49.38c2.36-.14,4.71-.28,7.06-.44,10.2-.67,20.37-1.49,30.59-2,12.73-.64,25.47-.18,38.21-.51,1.38-.04,2.76-.09,4.14-.15,4.13-.19,8.24-.48,12.33-.85-1.67-.82-3.34-1.66-4.98-2.5-3.57.04-7.13.09-10.7.14-1.78.03-3.56.06-5.35.09-1.78.03-3.56.07-5.34.12-1.88.05-3.77.09-5.65.14-13.19.35-26.37.77-39.54,1.31-3.47.14-6.95.29-10.42.44-3.73.17-7.47.34-11.2.52-1.8.09-3.59.17-5.39.26.11,1.25.21,2.49.31,3.74,1.78-.08,3.57-.17,5.35-.27.19-.01.38-.02.58-.03Z"/>
  <path class="cls-9" d="M192.94,73.31c-1.2-.3-1.05-1.17-.32-1.66-3.5-1.09-6.99-2.2-10.46-3.35-1.7.23-3.41.46-5.12.68-1.54.2-3.08.39-4.62.57-.34.04-.67.08-1.01.12-3.27.38-6.55.72-9.86,1-13.07,1.12-26.24,1.72-39.4,2.27-8.19.34-16.38.68-24.57,1.02-5.52.23-11.04.45-16.57.68-10.32.42-20.64.84-30.96,1.24-7.32.28-14.64.56-21.96.82h0c0,.09,0,.17,0,.26-.02.79-.04,1.59-.06,2.38,40.27-2.46,82.03-4.1,123.65-5.13h.06c1.72-.04,3.45-.08,5.17-.13,0,0,0,0,0,0,5.13-.12,10.25-.23,15.37-.33.12,0,.23,0,.35,0,1.6-.03,3.19-.06,4.79-.09.17,0,.34,0,.52,0,1.58-.03,3.15-.06,4.73-.09.16,0,.33,0,.49,0,1.61-.03,3.22-.06,4.82-.08.07,0,.13,0,.2,0,1.68-.03,3.36-.05,5.03-.08-.1-.02-.19-.05-.29-.07Z"/>
  <path class="cls-9" d="M514.98,18.57c-8.64.1-17.17.42-25.63.99-2.11.14-4.22.3-6.33.47-1.22.1-2.44.21-3.65.32-4.72.43-9.42.94-14.12,1.54-.37.05-.73.09-1.1.14,1.23.87,2.44,1.75,3.63,2.64h0c5.42-.52,10.86-1,16.3-1.42,3.27-.25,6.54-.49,9.82-.69,9.18-.58,18.38-.91,27.58-1,1.31-.01,2.63-.02,3.94-.03,3.94-.01,7.89.01,11.83.08,4.02.07,8.03.17,12.05.32-.06-1.07-.11-2.14-.16-3.21h0c-7.12-.14-14.24-.22-21.36-.22-4.27,0-8.54.02-12.81.07Z"/>
  <path class="cls-9" d="M58.93,19.32c2.62-.03,5.24-.05,7.86-.05h.02c1.32,0,2.65,0,3.97,0,3.97.02,7.95.07,11.92.15-1.5-1.17-2.97-2.35-4.41-3.55-9.33.13-18.66.4-27.97.82-1.16.05-2.33.11-3.49.16-6.98.34-13.95.75-20.9,1.25-1.16.08-2.32.17-3.48.25.23.8.44,1.61.64,2.43,9.26-.67,18.53-1.09,27.82-1.32,2.67-.06,5.34-.11,8.01-.14Z"/>
  <path class="cls-9" d="M548.21,52.23c-6.22-.17-12.43-.51-18.62-.93-.88-.06-1.77-.12-2.65-.19-1.41-.1-2.83-.21-4.24-.31-1.41-.11-2.82-.22-4.23-.33-.71-.05-1.41-.11-2.11-.17-2.04-.16-4.08-.32-6.11-.49-6.11-.5-12.21-1.04-18.3-1.62.13.17.26.34.39.51.15.2.29.4.44.6.06.08.1.14.14.19.01.02.03.04.05.07.25.36.49.72.73,1.08,8.26.84,16.55,1.64,24.85,2.36,2.37.21,4.74.41,7.12.6,8.23.67,16.48,1.24,24.75,1.68,0-1,0-2-.01-3.01-.01,0-.02,0-.04,0-.71-.01-1.42-.03-2.13-.05Z"/>
  <path class="cls-9" d="M543.63,23.25c-1.5-.04-3-.08-4.5-.11-2.25-.04-4.49-.07-6.74-.09-1.5,0-2.99-.01-4.49-.01-1.5,0-2.99.01-4.48.03-10.46.1-20.89.51-31.3,1.16-1.49.09-2.97.19-4.46.3-4.46.31-8.92.67-13.37,1.07-1.57.14-3.15.29-4.72.44.02.01.04.03.05.04.53.42,1.06.83,1.59,1.25.72.58,1.43,1.16,2.14,1.74h0c7.74-.62,15.51-1.13,23.3-1.51,2.6-.12,5.2-.23,7.8-.33,5.7-.2,11.41-.28,17.12-.28,4.44,0,8.88.05,13.32.13,4.89.09,9.85.21,14.75.54-.09-1.4-.18-2.79-.26-4.19-1.17-.04-2.33-.09-3.5-.12-.75-.02-1.5-.05-2.25-.07Z"/>
  <path class="cls-9" d="M45.96,25.58c3.71-.16,7.4-.41,11.12-.51.53-.01,1.06-.03,1.6-.03,10.63-.16,21.22-.18,31.84.14-1.96-1.37-3.87-2.77-5.74-4.18-2.89-.06-5.79-.11-8.68-.14-3.62-.04-7.23-.06-10.85-.04-13.96.05-27.91.5-41.79,1.49l32.3.9-32.05.25,32.05-.03h0c-2.96.64-5.92,1.28-8.88,1.92-.39.08-.78.17-1.16.25.08,0,.17,0,.25-.01Z"/>
  <path class="cls-9" d="M512.51,68.31c-3.53-.26-7.05-.54-10.56-.82.16.52.31,1.04.45,1.56.13.47.24.95.36,1.42,0,0,0,0,0,0,.05.27.11.54.16.81,9.89.87,19.79,1.69,29.71,2.47,3.3.26,6.61.52,9.91.77,2.74.21,5.48.41,8.22.61.03,0,.06,0,.09,0-.08-1.49-.15-2.98-.21-4.47-10.12-.49-20.22-1.09-30.29-1.79-1.44-.1-2.88-.2-4.32-.31-1.18-.08-2.35-.17-3.53-.26Z"/>
  <path class="cls-9" d="M90.25,58.48c1.69-.15,3.37-.31,5.06-.47,11.8-1.11,23.57-2.35,35.31-3.64,3.77-.41,7.54-.83,11.32-1.24h0c-1.67-.72-3.33-1.45-4.98-2.19h0c-3.86.46-7.72.91-11.58,1.35-1.46.17-2.92.33-4.37.49-5.32.59-10.65,1.16-15.98,1.7-11.38,1.14-22.84,2.11-34.36,2.88-1.65.11-3.29.22-4.94.32-1.76.11-3.52.21-5.27.31-10.92.61-21.87,1.03-32.82,1.22.06,1,.12,1.99.17,2.99,6.54-.14,13.07-.37,19.59-.68,14.34-.68,28.62-1.75,42.86-3.03Z"/>
  <path class="cls-9" d="M530.16,46.26c-.73-.04-1.45-.07-2.18-.11-1.73-.09-3.47-.18-5.2-.27-.25-.01-.5-.03-.74-.04-1.93-.1-3.86-.2-5.79-.31,0,0-.02,0-.02,0-4.42-.19-8.84-.43-13.25-.71-1.1-.07-2.21-.14-3.31-.21-3.76-.26-7.52-.55-11.27-.88.34.4.67.79,1,1.19.39.48.78.96,1.16,1.44h0c8.65.85,17.33,1.62,26.03,2.28,1.24.09,2.49.19,3.73.28,4.15.3,8.3.59,12.45.83,2.77.16,5.55.3,8.32.41,1.39.05,2.78.1,4.17.13,1.71.04,3.42.07,5.13.08,0-1.06-.01-2.12-.02-3.18-3.26-.14-6.51-.28-9.76-.44-2.15-.1-4.3-.2-6.45-.31-1.33-.06-2.65-.13-3.98-.2Z"/>
  <path class="cls-9" d="M547.22,29.15c-5.6-.21-11.22-.33-16.83-.35-.62,0-1.25,0-1.87,0-7.48.01-14.99.27-22.46.62-1.87.09-3.73.18-5.59.27-2.04.1-4.08.22-6.12.34s-4.08.25-6.12.39c-1.02.07-2.04.14-3.06.21-3.05.22-6.11.45-9.15.7h0c1.57,1.36,3.08,2.74,4.55,4.14,17.95-.69,35.91-1.34,53.88-1.93.44-.01.88-.03,1.33-.05,4.53-.16,9.38-.35,14.21-.29h0c-.07-1.32-.15-2.63-.23-3.95-.44-.02-.88-.04-1.32-.06-.4-.02-.8-.03-1.2-.05Z"/>
  <path class="cls-9" d="M43.11,33.32c7.21-.53,14.45-.88,21.71-.99,1.56-.02,3.13-.04,4.69-.04,0,0,.01,0,.02,0,.79,0,1.57,0,2.36,0,.67,0,1.34.01,2.01.02,8.48.1,16.95.49,25.4.92,1.3.07,2.61.13,3.91.2-3.15-1.91-6.21-3.86-9.18-5.85h0c-6.28-.27-12.56-.5-18.85-.71-9.75-.32-19.67-.84-29.46-.86-.65,0-1.3,0-1.96,0-.89.19-1.78.39-2.67.58-.42.09-.84.18-1.26.27-.65.14-1.3.28-1.95.42-2.95.64-5.9,1.27-8.84,1.92-.01,0-.02,0-.04,0-.3.07-.61.13-.91.2-.09.02-.17.04-.26.06-.24.06-.48.11-.72.17-.1.02-.19.05-.29.07-.24.06-.49.12-.73.18-.08.02-.16.04-.24.06-.32.08-.63.17-.95.26.22,1.51.42,3,.6,4.43.01.1.02.2.04.3,2.94-.33,5.88-.63,8.83-.9,2.91-.27,5.83-.51,8.75-.72Z"/>
  <path class="cls-9" d="M544.68,58.21c-2.7-.15-5.4-.31-8.09-.48-13.58-.86-27.09-2.04-40.56-3.36,1.23,2.07,2.35,4.15,3.32,6.27.67,1.46,1.27,2.94,1.8,4.42h0c1.12.09,2.24.17,3.36.26,8.94.68,17.9,1.28,26.89,1.81,1.6.09,3.19.18,4.79.27,4.79.26,9.58.51,14.38.73-.09-3.21-.13-6.42-.15-9.62-.11,0-.21-.01-.32-.02-1.8-.09-3.61-.18-5.41-.28Z"/>
  <path class="cls-9" d="M51.85,56.02c13.82-.64,27.6-1.55,41.35-2.74,1.37-.12,2.73-.24,4.1-.36,2.65-.24,5.3-.49,7.95-.75,1.71-.17,3.42-.34,5.13-.52,1.47-.15,2.94-.31,4.41-.47,2.42-.26,4.84-.53,7.27-.81,3.62-.42,7.25-.84,10.87-1.27-1.66-.77-3.31-1.54-4.95-2.33-2.53.25-5.07.49-7.61.69-.51.04-1.02.08-1.53.12-5.09.38-10.21.63-15.38.71-1.2.02-2.4.03-3.6.04-3.6.03-7.19.04-10.79.08-.8,0-1.6.02-2.4.03-.8.01-1.6.03-2.4.04-.07,0-.14,0-.2,0-5.45.12-10.9.38-16.33.69-.86.05-1.73.1-2.59.15-6.21.38-12.43.84-18.66,1.28-1.78.13-3.56.25-5.34.38-4.67.32-9.35.62-14.03.85h0c.06.77.12,1.54.17,2.31l-.14-1.86,3.03,3.1c-.93.11-1.85.21-2.78.32.03.38.05.76.08,1.14h0c6.16-.14,12.3-.33,18.44-.58,1.98-.08,3.95-.16,5.92-.26Z"/>
  <path class="cls-9" d="M550.97,77.1c-8.44-.63-16.88-1.3-25.31-2-2.81-.23-5.62-.47-8.43-.71-4.67-.4-9.33-.81-14-1.23.17,1.19.29,2.39.35,3.59.53.04,1.06.09,1.58.13.65.02,1.29.04,1.93.07.02,0,.04,0,.06,0,14.87.52,27,.99,35.87,1.34,0,0,0,0,0,0,1.11.04,2.17.09,3.17.13.1,0,.19,0,.29.01.27.01.53.02.8.03.04,0,.08,0,.12,0,.26.01.51.02.76.03.12,0,.24,0,.36.01.23,0,.46.02.69.03.09,0,.17,0,.26.01.16,0,.32.01.47.02.38.02.76.03,1.12.05-.04-.51-.07-1.01-.11-1.52Z"/>
  <path class="cls-9" d="M115.02,58.01c-18.97,1.86-37.98,3.64-57.11,4.77-6.06.36-12.18.68-18.32.91-1.53.06-3.07.11-4.61.16-1.54.05-3.07.09-4.61.12-.77.02-1.54.03-2.31.04-.06,0-.11,0-.17,0,.04.9.08,1.8.11,2.7,1.18,0,2.37-.02,3.55-.03,33.15-.38,66.19-3.05,98.97-5.98,3.51-.31,7.02-.63,10.52-.95,4.63-.42,9.27-.84,13.91-1.26-3.03-1.19-6.03-2.41-8.99-3.65-10.31,1.08-20.62,2.16-30.94,3.17Z"/>
  <path class="cls-2" d="M550.97,77.1c2.78.21,5.56.42,8.34.62-2.78-.2-5.56-.41-8.34-.62h0Z"/>
  <path class="cls-2" d="M18.3,17.14c1.24-.1,2.48-.19,3.72-.29h0c-1.24.09-2.48.19-3.72.29Z"/>
  <path class="cls-10" d="M22.47,18.35c-.14-.5-.29-1-.44-1.5-1.24.09-2.48.19-3.72.29-.32.03-.65.05-.97.08-.66.05-1.31.11-1.97.16s-1.31.11-1.97.16c.22.49.43.99.63,1.48h0c2.81-.24,5.63-.46,8.45-.67Z"/>
  <path class="cls-10" d="M549.08,17.24c.02.49.04.99.06,1.48,2.66.05,5.32.11,7.99.19.03-.49.06-.98.1-1.48-2.03-.06-4.07-.11-6.1-.15-.68-.02-1.36-.03-2.04-.04Z"/>
  <path class="cls-10" d="M549,13.53c0,.2,0,.41,0,.61,1.48.09,2.96.17,4.44.26,1.33.08,2.66.16,3.98.24.04-.5.09-1.01.13-1.51-2.85-.17-5.71-.34-8.56-.51,0,.3,0,.6,0,.91Z"/>
  <path class="cls-10" d="M21.05,14.66c-.12-.65-.36-1.61-.1-.93.11.3.22.6.33.91,1.58-.16,3.17-.31,4.75-.45,10.1-1.52,19.59-2.94,29.44-3.78-.68.04-1.37.08-2.05.12-13.96.83-27.85,2.01-41.64,3.54.09.19.18.38.27.57.14.3.29.6.43.91,2.85-.31,5.7-.61,8.56-.89Z"/>
  <path class="cls-10" d="M530.32,7.64c-1.31-.1-2.63-.2-3.94-.29-5.77-.43-11.54-.78-17.32-1.07-2.89-.15-5.78-.28-8.67-.4-1.02-.04-2.05-.08-3.07-.12-1.81-.07-3.62-.14-5.43-.2-.5-.02-1-.03-1.5-.05,19.63.97,39.14,2.46,58.68,3.89-.01.38-.02.76-.03,1.14,2.91.23,5.81.46,8.72.71.05-.48.1-.96.15-1.44-2.62-.22-5.25-.44-7.87-.65-6.56-.53-13.13-1.02-19.71-1.51Z"/>
  <path class="cls-10" d="M549.38,23.44c2.51.1,5.01.2,7.52.33.02-.5.03-1.01.05-1.51-2.55-.12-5.1-.23-7.66-.32.03.5.06,1.01.09,1.51Z"/>
  <path class="cls-10" d="M23.46,22.3c-.11-.51-.23-1.01-.35-1.52-1.3.09-2.59.19-3.89.29-.47.04-.94.08-1.41.12-.94.08-1.88.16-2.82.24.19.49.37.99.55,1.49,0,0,0,0,0,0,2.64-.23,5.28-.43,7.93-.62Z"/>
  <path class="cls-10" d="M550.39,55.29c0,1.07.01,2.14.02,3.22,2.6.13,5.2.24,7.81.35-.03-1.01-.08-2.06-.15-3.19-2.48-.11-4.96-.23-7.43-.36-.08,0-.16,0-.24-.01Z"/>
  <path class="cls-10" d="M550.37,50.38c0,.64,0,1.27,0,1.91,1.86.04,3.71.05,5.57.05.62,0,1.25,0,1.87-.02-.05-.67-.1-1.34-.15-2.01-1.36.04-2.72.06-4.08.07-1.07,0-2.15,0-3.22,0Z"/>
  <path class="cls-10" d="M549.74,29.27c2.36.12,4.72.29,7.06.52,0-.5,0-.99,0-1.49-2.37-.29-4.76-.51-7.17-.67.03.54.07,1.09.1,1.63Z"/>
  <path class="cls-10" d="M550.07,35.13c1.01,0,2.02.01,3.03.03,1.26.03,2.52.08,3.79.15-.02-.6-.03-1.2-.04-1.81-2.26-.18-4.56-.26-6.87-.29.03.64.07,1.28.1,1.91Z"/>
  <path class="cls-10" d="M25.69,45.99c.32-.02.64-.03.96-.05-.11-1.27-.22-2.55-.34-3.82-2.28.28-4.55.57-6.81.87,0,0,0,.01,0,.02.12,1.09.24,2.18.35,3.27,1.95-.1,3.9-.2,5.85-.29Z"/>
  <path class="cls-10" d="M25.79,37.19c-.08-.75-.17-1.49-.26-2.24-2.31.26-4.62.53-6.92.81.05.36.1.71.14,1.07.05.37.09.75.14,1.12,1.21-.14,2.42-.27,3.63-.41,1.09-.12,2.18-.24,3.27-.35Z"/>
  <path class="cls-10" d="M26.95,49.68c-2.14.1-4.28.18-6.42.24-.11,0-.23,0-.34.01.03.4.07.79.11,1.19.71.31,1.42.61,2.12.92,1.57-.06,3.13-.13,4.7-.21-.05-.72-.11-1.43-.17-2.15Z"/>
  <path class="cls-10" d="M550.65,70.66c2.62.13,5.24.25,7.86.36-.06-.87-.1-1.71-.13-2.54-2.61-.11-5.21-.23-7.82-.35.02.84.05,1.69.08,2.53Z"/>
  <path class="cls-10" d="M27.64,59.2c-.05-.78-.1-1.57-.15-2.35-2.27.05-4.53.09-6.8.13.04.77.07,1.54.1,2.31h0c2.28-.02,4.57-.05,6.86-.09Z"/>
  <path class="cls-10" d="M20.76,68.77c2.44.04,4.87.07,7.31.08-.02-.71-.04-1.43-.07-2.14-1.07,0-2.14.01-3.22.01-1.26,0-2.51,0-3.77,0,0,0,0,0,0,0-.03.24-.06.49-.1.73-.04.25-.08.49-.13.74,0,.19-.02.39-.03.58Z"/>
  <path class="cls-10" d="M27.9,64.01c-.03-.61-.06-1.22-.09-1.83-2.29.05-4.58.08-6.87.11.05.26.09.53.13.79,0,.03,0,.07.01.1.01.11.02.23.03.34.02.18.03.36.04.55h0c2.25,0,4.5-.02,6.75-.06Z"/>
  <path class="cls-10" d="M550.97,77.1c2.78.21,5.56.42,8.34.62-.12-.7-.22-1.37-.32-2.02-2.72-.19-5.43-.38-8.15-.57.04.66.08,1.32.12,1.97Z"/>
  <path class="cls-10" d="M28.1,76.69c.01-.67.02-1.34.02-2.01-2.61.11-5.22.23-7.83.36,0,0,0,0,0,.01-.07.64-.14,1.27-.23,1.91,2.68-.09,5.35-.18,8.03-.28Z"/>
  <path class="cls-3" d="M20.3,75.05c2.61-.13,5.22-.25,7.83-.36.01-1.94,0-3.89-.06-5.83-2.44-.01-4.87-.04-7.31-.08,0,0,0,0,0,0-.02.5-.05,1.01-.07,1.51,0,.03,0,.06,0,.09-.03.47-.06.94-.09,1.41-.01.15-.02.3-.03.45-.03.36-.05.72-.09,1.08-.05.53-.1,1.05-.15,1.58,0,.05-.01.1-.02.14Z"/>
  <path class="cls-2" d="M151.05,5.28c9.87.43,19.78,1.01,29.69.73,9.72-.27,18.71-1.87,27.86-3.73,2.69-.55,5.38-1.07,8.09-1.55-44.2.68-78.99,1.76-105.84,2.91,3.2.13,6.39.26,9.59.39,10.21.41,20.41.81,30.61,1.25Z"/>
  <path class="cls-2" d="M351.68.43c.55.04,1.09.09,1.64.13.7.05,1.4.11,2.1.16.38.03.76.06,1.13.09.7.05,1.39.11,2.09.16.38.03.77.06,1.15.09.7.05,1.4.11,2.1.16.38.03.75.06,1.13.09.7.05,1.4.1,2.1.16.38.03.76.06,1.15.09.7.05,1.41.1,2.11.15.38.03.75.05,1.13.08.7.05,1.41.1,2.11.15.38.03.76.05,1.13.08.7.05,1.39.1,2.09.14.38.03.77.05,1.15.08.69.05,1.39.09,2.08.14.39.03.78.05,1.16.08.69.04,1.38.09,2.07.13.39.02.79.05,1.18.07.68.04,1.37.08,2.05.12.4.02.8.05,1.2.07.68.04,1.35.08,2.03.11.41.02.82.05,1.23.07.67.04,1.34.07,2,.11.42.02.84.04,1.26.07.66.03,1.32.07,1.98.1.43.02.86.04,1.29.06.65.03,1.3.06,1.95.09.32.01.63.03.95.04,8.62,0,17.24.04,25.86.13,2.69.03,5.37.06,8.06.1-1.03-.49-2.06-.97-3.09-1.46-.06-.03-.11-.05-.16-.07-.04-.02-.08-.04-.14-.06-.33-.15-.66-.3-.98-.45-.55-.25-1.1-.49-1.65-.74-.03-.01-.07-.03-.1-.04-9.78-.26-18.37-.44-24.94-.5-19.02-.17-37.14-.29-54.41-.35,1.08.08,2.16.17,3.24.25.52.04,1.05.08,1.57.12Z"/>
  <path class="cls-3" d="M427.98,1.68c.33.15.66.3.98.45.06.03.1.05.14.06.04.02.09.04.16.07,1.03.48,2.06.97,3.09,1.46,19.23.28,38.45.83,57.62,1.76.14,0,.27.01.41.02.5.02,1,.03,1.5.05,1.81.06,3.62.13,5.43.2,1.02.04,2.05.08,3.07.12,2.89.12,5.78.25,8.67.4,5.78.29,11.55.65,17.32,1.07,1.31.1,2.63.2,3.94.29,6.57.49,13.14.99,19.71,1.51,2.63.21,5.25.43,7.87.65.11-1.01.23-2.02.36-3.03-2.05-1.1-82.36-4.55-132.03-5.87.03.01.07.03.1.04.55.24,1.1.49,1.65.74Z"/>
  <path class="cls-3" d="M549.01,14.15c.01,1.03.04,2.06.07,3.09.68.01,1.36.03,2.04.04,2.03.05,4.07.1,6.1.15.06-.93.13-1.85.21-2.78-1.33-.08-2.66-.16-3.98-.24-1.48-.09-2.96-.18-4.44-.26Z"/>
  <path class="cls-2" d="M553.45,14.41c-1.48-.09-2.96-.18-4.44-.26h0c1.48.09,2.96.17,4.44.26Z"/>
  <path class="cls-3" d="M15.36,17.38c.66-.05,1.31-.11,1.97-.16.32-.03.65-.05.97-.08,1.24-.1,2.48-.19,3.72-.29-.21-.67-.42-1.32-.65-1.97-.09.01-.18.03-.28.04.04.27.02.38-.15.02.05,0,.1-.01.15-.02-.01-.08-.03-.17-.05-.27-2.86.28-5.71.58-8.56.89.06.12.11.25.17.37.13.28.25.56.38.84.12.26.24.53.35.79.66-.06,1.31-.11,1.97-.16Z"/>
  <path class="cls-2" d="M26.04,14.18h0c-1.58.15-3.17.3-4.75.45-.11-.3-.22-.61-.33-.91-.26-.68-.02.28.1.93.02.1.03.19.05.27.09-.01.18-.03.28-.04-.03-.08-.06-.17-.09-.25,1.58-.16,3.17-.31,4.75-.45Z"/>
  <path class="cls-2" d="M21.05,14.66c-2.86.28-5.71.58-8.56.89,2.85-.31,5.7-.61,8.56-.89Z"/>
  <path class="cls-2" d="M150.72,7.36c-1.12-.04-2.23-.08-3.35-.12-1.15-.04-2.3-.08-3.45-.12-.87-.03-1.73-.06-2.6-.09-1.58-.06-3.16-.11-4.74-.17-2.02-.07-4.03-.15-6.05-.22-1.57-.06-3.14-.12-4.71-.17-2.25-.08-4.51-.17-6.76-.25-1.34-.05-2.68-.1-4.01-.15-3.31-.12-6.62-.25-9.92-.37-6.47-.24-12.93-.53-19.39-.84-6.76.36-12.78.73-18.12,1.07,1.17,1.25,2.39,2.47,3.65,3.68,26.47-.88,52.96-1.61,79.46-2.23Z"/>
  <path class="cls-2" d="M217.06,2.7c-6.48,1.18-12.84,2.61-19.39,3.66,35.71-.7,71.43-1.27,107.14-1.83,21.26-.33,42.52-.69,63.78-.89h0C352.18,2.49,335.81,1.08,319.39,0c-32.47,0-61.63.19-87.75.52-3.96.47-7.89,1.03-11.8,1.69-.93.16-1.86.32-2.79.49Z"/>
  <path class="cls-3" d="M549,12.63c2.85.17,5.71.34,8.56.51.06-.63.12-1.27.18-1.9-2.9-.25-5.81-.49-8.72-.71-.02.7-.03,1.4-.03,2.1Z"/>
  <path class="cls-3" d="M11.04,12.56c.25.5.51,1.01.75,1.52,13.79-1.53,27.68-2.72,41.64-3.54.68-.04,1.37-.08,2.05-.12h0c3.51-.3,7.06-.52,10.7-.64,1.7-.06,3.39-.11,5.09-.17-1.26-1.21-2.48-2.43-3.65-3.68-2.89.19-5.59.37-8.08.55-16.97,1.21-41.92,3.75-49.27,4.48,0,0-.02,0-.03,0,0,0-.02,0-.03,0h0c.27.52.54,1.04.8,1.56,0,.02.02.03.02.05Z"/>
  <path class="cls-2" d="M53.43,10.53c-13.96.83-27.85,2.01-41.64,3.54h0c13.79-1.53,27.68-2.72,41.64-3.54Z"/>
  <path class="cls-2" d="M55.48,10.41h0c-.68.04-1.37.08-2.05.12.68-.04,1.37-.08,2.05-.12h0Z"/>
  <path class="cls-3" d="M19.13,39.93h0c.12,1.02.24,2.04.36,3.06,0,0,0,0,0,0,2.27-.3,4.54-.59,6.81-.87-.16-1.65-.33-3.29-.51-4.94-1.09.12-2.18.23-3.27.35-1.21.13-2.42.27-3.63.41.04.34.09.69.13,1.03.03.26.06.51.09.77v.08s.02.1.02.1h0Z"/>
  <path class="cls-2" d="M26.3,42.13c-2.28.28-4.55.57-6.81.87,2.27-.3,4.54-.59,6.81-.87h0Z"/>
  <path class="cls-3" d="M20.53,49.92c2.14-.06,4.29-.14,6.42-.24-.1-1.25-.2-2.49-.31-3.74-.32.02-.64.03-.96.05-1.95.1-3.9.19-5.85.29.12,1.21.24,2.43.35,3.64h0c.11,0,.23,0,.34,0Z"/>
  <path class="cls-3" d="M28.1,76.95c0-.09,0-.17,0-.26-2.68.09-5.35.19-8.03.28-.06.46-.12.93-.19,1.39v.07c-.08.47-.15.94-.23,1.41,0,0,0,0,0,.01.03,0,.06,0,.08,0,2.76-.18,5.53-.35,8.31-.52.02-.79.04-1.59.06-2.38Z"/>
  <path class="cls-2" d="M28.1,76.69h0c-2.68.09-5.35.19-8.03.28,2.68-.09,5.35-.18,8.03-.28Z"/>
  <path class="cls-3" d="M549.3,21.93c2.55.09,5.1.2,7.66.32.03-.65.06-1.3.09-1.95.03-.47.05-.93.08-1.4-2.66-.07-5.32-.13-7.99-.19.04,1.07.1,2.14.16,3.21Z"/>
  <path class="cls-2" d="M549.14,18.72c2.66.05,5.32.11,7.99.19-2.66-.07-5.32-.13-7.99-.19h0Z"/>
  <path class="cls-3" d="M17.8,21.19c.47-.04.94-.08,1.41-.12,1.3-.1,2.59-.2,3.89-.29-.2-.82-.41-1.63-.64-2.43-2.82.21-5.63.44-8.45.67,0,0,0,0,0,0,.33.8.65,1.6.96,2.4.94-.08,1.88-.16,2.82-.24Z"/>
  <path class="cls-3" d="M550.07,35.13c.02.4.03.8.05,1.2-18.02.67-29.44,4.83-34.64,7.25,0,0,0,0,0,0,.74.03,1.48.05,2.22.08,1.08.04,2.16.08,3.24.11h0c1.15-.2,2.31-.39,3.46-.59.12-.02.24-.04.36-.06,8.43-1.41,16.92-2.7,25.46-3.88,2.25-.31,4.5-.61,6.76-.91,0-.2-.01-.41-.02-.61-.03-.8-.05-1.6-.07-2.4-1.27-.08-2.53-.12-3.79-.15-1.01-.02-2.02-.03-3.03-.03Z"/>
  <path class="cls-3" d="M550.38,52.28c0,1,0,2,.01,3.01.08,0,.16,0,.24.01,2.48.13,4.95.25,7.43.36-.04-.56-.08-1.14-.12-1.74-.04-.54-.08-1.07-.12-1.61-.62,0-1.25.01-1.87.02-1.86,0-3.72,0-5.57-.05Z"/>
  <path class="cls-3" d="M549.64,27.63c2.41.16,4.8.38,7.17.67.01-1.51.04-3.02.09-4.53-2.5-.12-5.01-.23-7.52-.33.08,1.4.17,2.79.26,4.19Z"/>
  <path class="cls-3" d="M550.85,75.12c2.71.19,5.43.38,8.15.57-.24-1.69-.39-3.22-.49-4.68-2.62-.11-5.24-.23-7.86-.36.06,1.49.12,2.98.21,4.47Z"/>
  <path class="cls-3" d="M27.81,62.19c-.05-1-.11-1.99-.17-2.99-2.29.04-4.57.07-6.86.09.03.85.05,1.7.07,2.55.04.15.06.3.09.45,0,0,0,0,0,0,2.29-.02,4.58-.06,6.87-.11Z"/>
  <path class="cls-3" d="M553.59,50.37c1.36-.01,2.72-.03,4.08-.07-.07-.94-.14-1.87-.2-2.81-2.37-.1-4.75-.2-7.12-.3,0,1.06.02,2.12.02,3.18,1.07,0,2.15,0,3.22,0Z"/>
  <path class="cls-3" d="M549.97,33.21c2.31.03,4.61.12,6.87.29-.02-1.24-.03-2.48-.04-3.72-2.34-.24-4.7-.4-7.06-.52.08,1.32.16,2.63.23,3.95Z"/>
  <path class="cls-2" d="M556.8,29.79c-2.34-.24-4.7-.4-7.06-.52,2.36.12,4.72.29,7.06.52Z"/>
  <path class="cls-2" d="M549.97,33.21c2.31.03,4.61.12,6.87.29-2.26-.18-4.56-.26-6.87-.29h0Z"/>
  <path class="cls-3" d="M25.49,34.65c-.17-1.43-.37-2.91-.6-4.43-.08.02-.15.05-.23.07-.17.05-.33.1-.5.15-.09.03-.18.06-.27.09-.16.05-.32.11-.48.16-.08.03-.15.05-.23.08-.23.09-.46.17-.68.27h0c-.28.12-.56.24-.84.37-1.6.77-2.65,1.61-3.33,2.5.09.61.18,1.22.26,1.83,2.3-.28,4.61-.56,6.92-.81-.01-.1-.02-.2-.04-.3Z"/>
  <path class="cls-3" d="M550.56,68.13c2.6.12,5.21.24,7.82.35-.11-3.11-.04-6.05-.16-9.62-2.61-.1-5.21-.22-7.81-.35.02,3.21.06,6.42.15,9.62Z"/>
  <path class="cls-2" d="M27.48,56.85c-.03-.38-.05-.76-.08-1.14-2.25.26-4.5.52-6.74.78,0,.06,0,.12,0,.19,0,.1,0,.2.01.31,2.27-.04,4.54-.08,6.8-.13Z"/>
  <path class="cls-3" d="M22.42,52.04c1.62.7,3.25,1.4,4.87,2.1-.06-.77-.11-1.54-.17-2.31-1.57.08-3.13.15-4.7.21Z"/>
  <path class="cls-2" d="M27.12,51.83c-1.57.08-3.13.15-4.7.21h0c1.57-.06,3.13-.13,4.7-.21h0Z"/>
  <path class="cls-3" d="M27.48,56.85h0c-2.27.05-4.53.09-6.8.13,2.27-.04,4.54-.08,6.8-.13Z"/>
  <path class="cls-3" d="M551.08,78.62c.18,0,.35.01.52.02.08,0,.16,0,.24,0,.21,0,.42.02.63.03,2.35.1,4.16.17,5.41.22.03,0,.05,0,.08,0,.08,0,.15,0,.23,0,.05,0,.1,0,.14,0,.06,0,.11,0,.17,0,.09,0,.17,0,.25,0,.04,0,.07,0,.1,0,.07,0,.13,0,.2,0,.03,0,.06,0,.09,0,.05,0,.1,0,.15,0,.02,0,.05,0,.07,0,.07,0,.13,0,.18,0,0-.05-.02-.1-.03-.15-.07-.37-.13-.73-.19-1.09-2.78-.2-5.56-.41-8.34-.62.03.51.07,1.01.11,1.52Z"/>
  <path class="cls-3" d="M24.79,66.73c1.07,0,2.14,0,3.22-.01-.03-.9-.07-1.8-.11-2.7-2.25.04-4.5.06-6.75.06h0c0,.13,0,.26,0,.39,0,.11,0,.22,0,.33,0,.14,0,.29-.01.43,0,.09,0,.19-.01.28,0,.16-.02.31-.03.47,0,.07-.01.14-.02.21-.02.18-.04.36-.06.54h0c1.26,0,2.51,0,3.77,0Z"/>
  <path class="cls-3" d="M55.75,23.2l-32.3-.9c-2.65.19-5.29.39-7.93.62.04.1.07.2.11.3.03.08.06.16.08.23h7.98s32.05-.26,32.05-.26Z"/>
  <path class="cls-3" d="M27.29,54.14c.96.42,1.93.83,2.89,1.25l-3.03-3.1.14,1.86Z"/>
  <path class="cls-6" d="M515.47,43.57c-7.19-.27-14.37-.64-21.52-1.12-2.38-.16-4.77-.34-7.14-.52.53.6,1.06,1.2,1.57,1.8h0c3.75.32,7.51.62,11.27.88,1.1.08,2.21.15,3.31.21,4.41.28,8.83.52,13.25.71-1.35-.07-2.7-.14-4.05-.22,0,0,1.09-.72,3.3-1.74Z"/>
  <path class="cls-9" d="M538.25,35.39c-2.97.12-5.93.25-8.89.35-9.32.33-18.63.66-27.95.99-6.29.22-12.59.45-18.88.66.73.73,1.45,1.47,2.15,2.21.73.77,1.44,1.55,2.14,2.33,2.38.19,4.76.36,7.14.52,7.15.48,14.34.85,21.52,1.12,5.21-2.42,16.62-6.58,34.64-7.25-.02-.4-.03-.8-.05-1.2-2.46,0-4.91.04-7.37.11-1.48.04-2.97.1-4.45.15Z"/>
  <polygon class="cls-2" points="515.48 43.57 515.47 43.57 515.47 43.57 515.48 43.57"/>
  <path class="cls-10" d="M515.47,43.57c-2.21,1.03-3.3,1.74-3.3,1.74h0s0,0,0,0c1.34-.24,2.67-.48,4.01-.72.22-.04.43-.08.65-.12,1.37-.24,2.73-.48,4.1-.72h0c-1.82-.06-3.64-.12-5.46-.19Z"/>
  <path class="cls-1" d="M368.59,3.63l30.84-.11c-.23,0-.46-.02-.68-.03-.12,0-.24,0-.35-.01h.03c-.32-.01-.63-.03-.95-.04-.65-.03-1.3-.06-1.95-.09-.43-.02-.86-.04-1.29-.06-.66-.03-1.32-.06-1.98-.1-.42-.02-.84-.04-1.26-.07-.67-.03-1.34-.07-2-.11-.41-.02-.82-.05-1.23-.07-.68-.04-1.35-.08-2.03-.11-.4-.02-.8-.05-1.2-.07-.68-.04-1.37-.08-2.05-.12-.39-.02-.79-.05-1.18-.07-.69-.04-1.38-.09-2.07-.13-.39-.02-.78-.05-1.16-.08-.69-.05-1.39-.09-2.08-.14-.38-.03-.77-.05-1.15-.08-.7-.05-1.39-.09-2.09-.14-.38-.03-.76-.05-1.13-.08-.7-.05-1.41-.1-2.11-.15-.38-.03-.75-.05-1.13-.08-.7-.05-1.41-.1-2.11-.15-.38-.03-.76-.06-1.15-.09-.7-.05-1.4-.1-2.1-.16-.38-.03-.75-.06-1.13-.09-.7-.05-1.4-.11-2.1-.16-.38-.03-.77-.06-1.15-.09-.7-.05-1.39-.11-2.09-.16-.38-.03-.76-.06-1.13-.09-.7-.05-1.4-.11-2.1-.16-.55-.04-1.09-.09-1.64-.13-.52-.04-1.05-.08-1.57-.12-1.08-.08-2.16-.17-3.24-.25C337.46.02,328.3,0,319.39,0c16.42,1.08,32.79,2.49,49.2,3.63h0Z"/>
  <path class="cls-1" d="M115.05,6.06c1.34.05,2.68.1,4.01.15,2.25.08,4.51.17,6.76.25,1.57.06,3.14.12,4.71.17,2.02.07,4.03.15,6.05.22,1.58.06,3.16.11,4.74.17.87.03,1.73.06,2.6.09l5.13.1,48.61-.86h0c6.55-1.04,12.91-2.47,19.39-3.66.93-.17,1.85-.33,2.79-.49,3.9-.66,7.84-1.22,11.8-1.69-5.1.06-10.09.13-14.96.21-2.71.49-5.4,1.01-8.09,1.55-9.15,1.86-18.14,3.46-27.86,3.73-9.91.28-19.82-.31-29.69-.73-10.2-.44-20.41-.85-30.61-1.25-3.2-.13-6.39-.26-9.59-.39-9.3.4-17.65.81-25.11,1.21,6.46.31,12.92.6,19.39.84,3.31.12,6.62.25,9.92.37Z"/>
  <path class="cls-5" d="M405.45,28.02c-21.63,1.12-43.5,1.1-65.19,1.56-22.13.47-44.29.61-66.33-.91-21.73-1.5-43.13-4.28-64.55-6.84-20.73-2.49-41.54-4.61-62.58-5.89-23.34-1.42-46.82-1.94-70.26-1.56.05.04.09.08.14.12.54.46,1.08.92,1.63,1.38,17.96-.25,35.94.02,53.86.82,21.73.97,43.3,2.77,64.7,5.21,20.97,2.4,41.81,5.22,62.92,7.15,21.05,1.92,42.15,2.56,63.43,2.34,21.88-.23,43.79-.76,65.66-1.26,10.52-.24,21.05-.66,31.45-1.67,10.43-1.02,20.56-2.78,30.72-4.47,4.36-.73,8.72-1.37,13.09-1.94-.47-.33-.94-.67-1.42-1-.19-.13-.38-.26-.57-.39-8.04,1.17-15.97,2.6-23.96,3.88-10.77,1.72-21.63,2.91-32.74,3.49Z"/>
  <path class="cls-5" d="M137.8,11.41c22.79.83,45.53,1.77,68.33.48,22.9-1.29,45.5-4.05,68.49-4.81,23.43-.78,46.9.11,70.27,1.12,23,.99,45.95,1.86,69.01,2.08,10.61.1,21.21.15,31.82.25-.94-.52-1.9-1.04-2.86-1.55-4.48-.04-8.95-.07-13.43-.1-23.54-.15-46.99-.58-70.47-1.58-22.93-.98-45.88-2.14-68.89-2.02-23.23.12-45.94,2.27-68.9,4.06-23.19,1.81-46.06,1.9-69.37,1.07-25.93-.92-51.71-1.71-77.69-.84-.92.03-1.84.07-2.77.1.56.54,1.13,1.07,1.7,1.59,21.51-.72,43.11-.64,64.76.15Z"/>
  <path class="cls-5" d="M270.91,34.62c22.24,1.44,44.61,2.35,67,2.2,22.71-.15,45.18-1.65,67.56-3.91,21.41-2.16,42.66-4.84,64.11-6.88-.1-.08-.2-.16-.3-.24-.14-.11-.34-.26-.4-.3-.36-.28-.73-.55-1.09-.82-14.42,1.38-28.78,3.05-43.13,4.65-23.22,2.58-46.54,4.91-70.16,5.66-22.32.71-44.71.22-66.97-.92-45.14-2.32-89.72-7.31-134.59-10.88-23.26-1.85-46.72-3.31-70.2-3.77.68.53,1.36,1.05,2.05,1.58,17.67.38,35.33,1.32,52.88,2.57,44.54,3.15,88.66,8.16,133.27,11.06Z"/>
  <path class="cls-5" d="M272.82,39.53c22.25,1.01,44.53,1.09,66.82,1.45,22.73.37,45.19,1.81,67.65,3.89,21.82,2.02,43.5,4.76,65.25,7.08,7.82.83,15.65,1.65,23.49,2.42-.74-1.25-1.53-2.49-2.35-3.72-2.51-.25-5.02-.51-7.52-.77-21.58-2.23-43.14-5.03-64.91-6.53-11.06-.76-22.05-1.88-33.13-2.57-10.88-.68-21.8-1.2-32.73-1.54-22.41-.71-44.87-.48-67.27-1.31-21.95-.82-43.76-2.36-65.6-3.91-21.87-1.55-43.59-3.77-65.47-5.26-21.74-1.48-43.53-2.84-65.38-3.55-.38-.01-.77-.02-1.15-.04.68.47,1.36.94,2.04,1.41.49.33.97.67,1.47,1,15.75.67,31.47,1.54,47.15,2.72,43.81,3.3,87.6,7.21,131.65,9.22Z"/>
  <path class="cls-5" d="M467.51,43.9c-5.84-.68-11.63-1.5-17.44-2.27-10.04-1.33-19.99-2.81-29.87-4.49,6.94-.79,13.86-1.66,20.8-2.42,9.87-1.08,19.76-2.08,29.69-2.94,1.77-.15,3.55-.3,5.32-.44h0c-.64-.56-1.29-1.12-1.95-1.67-.23-.2-.47-.39-.71-.58-9.79.78-19.55,1.72-29.29,2.74-5.6.59-11.2,1.2-16.79,1.83-5.66.64-11.36,1.21-16.98,1.96-2.08.28-2.03,2.18,0,2.48,11.73,1.7,23.5,3.35,35.29,4.91,11.62,1.54,23.35,2.85,35.08,4.08,3.76.4,7.52.77,11.28,1.13h0c-.23-.31-.45-.61-.69-.92-.24-.31-.48-.61-.72-.92-1.9-.19-3.8-.38-5.7-.57-5.79-.6-11.56-1.22-17.33-1.89Z"/>
  <path class="cls-5" d="M460.75,36.24c-5.28.2-10.57.41-15.78,1.01-1.48.17-1.41,1.55,0,1.74,9.03,1.26,18.14,2.28,27.28,3.21,5.36.54,10.74,1.07,16.13,1.53h0c-.51-.6-1.04-1.21-1.57-1.8-3.57-.28-7.14-.6-10.69-.95-7.45-.73-14.84-1.62-22.2-2.61,1.86-.09,3.72-.16,5.58-.22,4.65-.15,9.31-.31,13.96-.46,3.02-.1,6.05-.2,9.07-.31-.64-.64-1.3-1.28-1.96-1.92-1.18.05-2.37.09-3.55.13-5.42.21-10.84.42-16.26.63Z"/>
  <path class="cls-5" d="M435.62,14.21c-4.75-.06-9.47-.38-14.19-.67-18.72-1.15-37.41-2.45-56.16-3.41-18.77-.96-37.6-1.64-56.44-1.26-9.28.19-18.54.38-27.8.89-9.26.52-18.41,1.36-27.56,2.35-4.66.5-9.32.95-14.04,1.19-4.68.24-9.38.33-14.08.41-9.45.16-18.88.42-28.32.7-2.38.07-4.77.1-7.15.15-.63.01-.91.35-.83.63-.33.32-.07.84.76.87,9.17.35,18.13,1.38,27.05,2.65,8.85,1.26,17.84,2.21,26.82,3.07,18.25,1.74,36.64,2.93,55.1,3.5,18.37.57,36.73.53,55.09-.17,9.32-.36,18.63-.82,27.97-.93,8.95-.1,17.94.03,26.85-.59,4.48-.31,8.87-.83,13.18-1.64,4.28-.81,8.45-1.8,12.76-2.56,7.25-1.29,14.73-1.88,22.24-2.25-.83-.53-1.66-1.05-2.5-1.57-4.38.22-8.75.54-13.08,1.02-8.76.98-17.02,3.09-25.8,4.02-8.92.95-17.97.94-26.99.85-9.27-.09-18.49.01-27.75.31-18.38.58-36.79.82-55.19.52-18.34-.3-36.67-1.13-54.87-2.49-9.15-.69-18.27-1.55-27.37-2.45-6.64-.66-13.3-1.4-20-1.91,4.96-.04,9.93-.08,14.89-.16,9.15-.15,18.36-.22,27.44-.99,9.23-.78,18.32-2.04,27.58-2.76,9.21-.72,18.47-1.19,27.75-1.4,9.2-.21,18.42-.07,27.62.11,9.33.18,18.65.46,27.97.87,18.59.81,37.12,2,55.66,3.12,9.25.56,18.73,1.47,28.04,1.13.51-.02,1.02-.04,1.53-.07.9-.05,1.8-.11,2.7-.17,2.71-.2,5.46-.44,8.2-.56h0c-.63-.38-1.26-.76-1.9-1.13-.94.07-1.87.15-2.78.22-4.12.35-8.24.6-12.41.55Z"/>
  <path class="cls-5" d="M394.22,16.65c-9.28-1.53-18.98-2.05-28.57-2.3-10.01-.26-20.04-.28-30.06-.39l-30.72-.34c-9.84-.11-19.69-.33-29.53-.25-9.85.09-19.79.69-28.95,2.95-.77-.12-1.55-.25-2.32-.38-.71-.12-1.21.53-.52.73.47.14.94.27,1.41.39.07.38.78.76,1.57.55.11-.03.21-.06.32-.08,7.4,1.71,15.47,2.24,23.35,2.55,9.81.39,19.67.48,29.5.56,20.1.15,40.23-.09,60.3-.76,5.57-.19,11.14-.43,16.7-.68,5.74-.26,11.45-.72,17.19-1.05,1.36-.08,1.8-1.24.34-1.48ZM378.97,17.05c-4.97.18-9.95.34-14.92.48-9.96.28-19.92.55-29.88.71-19.75.32-39.52.39-59.27.17-8.47-.1-16.83-.5-25.06-1.59,7.49-1.59,15.5-2.11,23.43-2.24,9.51-.15,19.04.09,28.55.2,19.9.23,39.82.34,59.72.7,7.96.14,15.9.47,23.68,1.39-2.08.05-4.17.1-6.25.17Z"/>
  <path class="cls-5" d="M123.16,41.27c-1.94.05-3.87.1-5.81.16.95.5,1.91,1,2.88,1.5,3.38-.04,6.76-.08,10.13-.12,1.35-.02,2.05-1.2.72-1.59-6.26-1.86-13.03-2.74-19.91-3.14,1.41.79,2.83,1.56,4.26,2.33,2.62.18,5.2.46,7.73.86Z"/>
  <path class="cls-5" d="M163.57,38.57c4.74.2,9.8.25,14.3,1.23-10.87.84-21.6,2.06-32.35,3.37-6.74.83-13.51,1.63-20.31,2.24.91.45,1.83.9,2.76,1.34,4.19-.42,8.36-.91,12.53-1.43,13.72-1.73,27.54-3.93,41.6-4.37,1.28-.04,1.6-.94.62-1.37-4.35-1.91-9.8-2.33-15.03-2.65-6.35-.38-12.71-.75-19.06-1.12-12.81-.75-25.64-1.39-38.47-2.03-2.32-.12-4.64-.24-6.96-.36,1.42.86,2.87,1.71,4.32,2.56,11.68.59,23.35,1.18,35.03,1.69,7,.31,14,.59,21,.88Z"/>
  <path class="cls-5" d="M375.25,50.26c-41.52-5.87-83.46-11.41-126.4-10.95-39.26.42-77.59,5.27-115.95,9.79,1.34.62,2.69,1.23,4.05,1.84,31.93-3.77,63.82-7.91,96.22-9.5,21.36-1.05,42.68-.76,63.93.88,21.77,1.68,43.24,4.45,64.57,7.5,20.9,2.99,41.54,6.54,62.53,9.3,21.53,2.83,43.29,5.36,65.11,7.29,4.2.37,8.41.73,12.62,1.07h0c-.13-.42-.26-.85-.4-1.27-.13-.39-.26-.77-.4-1.15-20.81-1.61-41.67-3.48-62.18-6.12-21.29-2.74-42.52-5.69-63.71-8.69Z"/>
  <path class="cls-5" d="M503.59,76.74c-34.18-2.84-68.34-5.81-102.19-9.84-22.5-2.68-44.67-6.14-67.06-9.11-21.29-2.83-42.73-4.67-64.54-5.08-38.54-.72-76.8,2.37-114.84,5.78,1.78.7,3.56,1.39,5.35,2.07,30.85-2.77,61.79-5.28,92.99-5.73,21.77-.32,43.57.46,64.99,2.9,22.26,2.53,43.94,6.75,66.09,9.62,24.79,3.22,49.78,5.79,74.85,8.1.01,0,.03,0,.04,0,.98.03,1.96.05,2.93.08.09,0,.18,0,.27,0,1.92.05,3.83.11,5.71.16.11,0,.22,0,.33,0,1.9.06,3.78.11,5.63.17.05,0,.09,0,.14,0,.94.03,1.88.06,2.81.08h.04c9.52.29,18.37.58,26.47.86,0-.03,0-.05,0-.08Z"/>
  <path class="cls-5" d="M502.92,71.27c-7.25-.64-14.49-1.3-21.72-1.99-20.32-1.95-40.58-4.13-60.71-6.68-19.69-2.5-39.17-5.47-58.72-8.32-19.57-2.86-39.26-5.5-59.21-7.21-19.12-1.63-38.38-2.2-57.68-1.81-14.05.28-28.06,1.02-42.02,2.05-4.3.32-8.59.66-12.87,1.03-1.07.09-2.14.18-3.21.28-5.62.49-11.24,1.03-16.85,1.58-2.34.23-4.67.47-7.01.71-7,.72-13.99,1.47-20.97,2.23h0c1.33.57,2.67,1.14,4.02,1.71,28.07-2.93,56.16-5.82,84.6-7.14,19.07-.88,38.3-1.15,57.38-.16,20.18,1.06,40.02,3.45,59.7,6.24,19.67,2.79,39.19,5.96,58.89,8.69,19.85,2.74,39.86,5.1,59.95,7.15,12.22,1.25,24.48,2.43,36.76,3.53-.08-.55-.17-1.11-.28-1.66-.01-.08-.03-.15-.05-.23Z"/>
  <path class="cls-5" d="M373.25,72.16c-12.89-2.55-25.77-5.13-38.71-7.6-12.6-2.41-25.4-4.51-38.57-5.45-13.62-.98-27.37-.39-41.01.08-13.56.47-27.14.98-40.56,2.28-.79.08-1.58.16-2.37.24-1.58.17-3.16.35-4.73.54-1.92.23-3.83.48-5.73.74-8.26,1.12-16.45,2.44-24.73,3.51h0c1.77.6,3.55,1.2,5.33,1.79,6.07-.83,12.12-1.72,18.2-2.56,13.11-1.83,26.36-2.86,39.78-3.45,13.51-.59,27.14-1.19,40.69-1.09,13.22.1,26.1,1.31,38.86,3.34,12.67,2.01,25.11,4.53,37.57,6.96,3.43.67,6.86,1.33,10.29,1.99.04,0,.07,0,.11,0,2.28.03,4.55.07,6.81.1h0c2.29.04,4.57.07,6.84.11-2.69-.53-5.41-1.02-8.08-1.54Z"/>
  <path class="cls-5" d="M314.77,70.06c-12.01-3.19-24.79-3.9-37.81-3.88-13.3.02-26.67.15-39.95.66-14.75.57-29.55,1.76-43.64,4.5-.29.06-.54.16-.75.3-.74.49-.88,1.35.32,1.66.1.02.19.05.29.07,1.61-.02,3.22-.05,4.83-.07,1.35-.02,2.7-.04,4.04-.06-.96-.22-1.92-.44-2.87-.68,23.31-3.74,47.76-4.01,71.78-4.06,12.75-.03,25.67.22,37.73,2.95,1.93.44,3.81.92,5.67,1.45,3.38.02,6.75.05,10.1.08-3.19-1.04-6.41-2.05-9.73-2.93Z"/>
  <path class="cls-7" d="M384.37,67.35c-22.15-2.87-43.83-7.09-66.09-9.62-21.42-2.44-43.21-3.21-64.99-2.9-31.2.45-62.14,2.96-92.99,5.73,5.44,2.06,10.95,4.04,16.52,5.94h0c8.28-1.07,16.47-2.39,24.73-3.51,1.91-.26,3.82-.51,5.73-.74,1.57-.19,3.15-.37,4.73-.54.79-.08,1.58-.16,2.37-.24,13.42-1.3,27-1.82,40.56-2.28,13.65-.47,27.39-1.06,41.01-.08,13.17.95,25.97,3.04,38.57,5.45,12.93,2.47,25.82,5.05,38.71,7.6,2.67.53,5.39,1.01,8.08,1.54,1.76.03,3.52.06,5.26.09.05,0,.09,0,.14,0,.84.01,1.68.03,2.51.04.03,0,.06,0,.09,0,6.99.13,13.84.26,20.53.4.03,0,.07,0,.1,0,.79.02,1.57.03,2.36.05.06,0,.12,0,.19,0,.78.02,1.55.03,2.32.05.05,0,.09,0,.14,0,.8.02,1.6.03,2.4.05.01,0,.03,0,.04,0,4.11.09,8.15.18,12.13.28.03,0,.06,0,.09,0,.75.02,1.49.04,2.23.05.08,0,.15,0,.23,0,.7.02,1.4.03,2.1.05.09,0,.18,0,.26,0,.7.02,1.4.03,2.1.05.07,0,.13,0,.2,0,.73.02,1.46.04,2.18.05.03,0,.07,0,.1,0,3.09.08,6.13.16,9.13.23.01,0,.03,0,.04,0,.73.02,1.46.04,2.18.06.04,0,.09,0,.13,0,.68.02,1.36.04,2.04.05.08,0,.17,0,.25,0,.63.02,1.26.03,1.89.05.11,0,.23,0,.34,0,.62.02,1.24.03,1.85.05.1,0,.19,0,.29,0,.64.02,1.29.04,1.93.05.05,0,.09,0,.14,0-25.07-2.31-50.06-4.88-74.85-8.1Z"/>
  <path class="cls-7" d="M115.43,40.4c.64.34,1.28.68,1.92,1.02,1.94-.05,3.87-.11,5.81-.16-2.52-.41-5.11-.68-7.73-.86Z"/>
  <path class="cls-7" d="M308.73,71.46c-12.06-2.73-24.98-2.98-37.73-2.95-24.02.06-48.47.32-71.78,4.06.95.23,1.91.45,2.87.68,2.34-.03,4.68-.06,7.02-.09h.4c2.33-.03,4.65-.06,6.98-.08h.13c2.31-.03,4.61-.05,6.91-.07.11,0,.23,0,.34,0,2.31-.02,4.62-.04,6.93-.06h.22c2.3-.02,4.59-.04,6.88-.05.07,0,.14,0,.21,0,2.31-.01,4.61-.03,6.91-.04.09,0,.19,0,.28,0,2.3-.01,4.59-.02,6.88-.03.02,0,.05,0,.07,0,2.31,0,4.62-.02,6.92-.02.08,0,.16,0,.25,0,4.61-.01,9.2-.02,13.77-.02h.23c4.58,0,9.14,0,13.67.01.05,0,.11,0,.16,0,4.56,0,9.1.03,13.6.05.02,0,.04,0,.05,0,4.53.02,9.03.05,13.5.08-1.86-.52-3.75-1.01-5.67-1.45Z"/>
  <path class="cls-7" d="M402.67,3.65c1.28.05,2.56.09,3.85.13,9.08.28,18.17.46,27.25.61-.47-.23-.95-.45-1.42-.68-2.69-.04-5.37-.07-8.06-.1-8.62-.09-17.24-.13-25.86-.13h-.03c.12,0,.24,0,.35.01.93.04,1.86.08,2.8.11.37.01.75.03,1.12.04Z"/>
  <path class="cls-7" d="M463.45,15.23c-.36-.08-.73-.16-1.1-.22-.85-.14-1.7-.25-2.56-.33-.31-.03-.62-.05-.94-.08-.23-.02-.46-.03-.69-.04-.2-.01-.4-.02-.6-.03-.4-.02-.81-.03-1.21-.03-.2,0-.41,0-.61,0-.2,0-.4,0-.61,0-.1,0-.2,0-.31,0-.71,0-1.42.03-2.13.06h0c-2.74.11-5.48.36-8.2.56-.91.07-1.81.13-2.7.17-.51.03-1.02.05-1.53.07-9.31.35-18.79-.57-28.04-1.13-18.54-1.12-37.07-2.31-55.66-3.12-9.31-.41-18.63-.7-27.97-.87-9.2-.17-18.42-.32-27.62-.11-9.28.21-18.54.68-27.75,1.4-9.25.72-18.34,1.98-27.58,2.76-9.08.77-18.28.84-27.44.99-4.96.08-9.92.12-14.89.16,6.7.51,13.36,1.26,20,1.91,9.1.9,18.21,1.76,27.37,2.45,18.2,1.37,36.53,2.2,54.87,2.49,18.4.3,36.81.06,55.19-.52,9.26-.29,18.48-.4,27.75-.31,9.02.09,18.08.1,26.99-.85,8.78-.93,17.03-3.05,25.8-4.02,4.32-.48,8.69-.8,13.08-1.02,1.51-.08,3.02-.14,4.54-.2,1.51-.06,3.03-.11,4.54-.15ZM393.88,18.14c-5.73.33-11.44.79-17.19,1.05-5.56.25-11.13.49-16.7.68-20.07.67-40.2.91-60.3.76-9.83-.07-19.68-.17-29.5-.56-7.88-.31-15.95-.84-23.35-2.55-.11.03-.22.05-.32.08-.79.21-1.5-.17-1.57-.55-.47-.12-.95-.25-1.41-.39-.69-.2-.2-.85.52-.73.77.14,1.54.26,2.32.38,9.16-2.26,19.1-2.86,28.95-2.95,9.84-.09,19.69.14,29.53.25l30.72.34c10.02.11,20.05.14,30.06.39,9.59.25,19.29.77,28.57,2.3,1.46.24,1.02,1.41-.34,1.48Z"/>
  <path class="cls-7" d="M301.82,14.79c-9.51-.11-19.04-.35-28.55-.2-7.93.13-15.94.64-23.43,2.24,8.22,1.09,16.58,1.49,25.06,1.59,19.75.22,39.52.15,59.27-.17,9.97-.16,19.92-.43,29.88-.71,4.98-.14,9.95-.3,14.92-.48,2.08-.08,4.17-.13,6.25-.17-7.78-.92-15.71-1.25-23.68-1.39-19.9-.36-39.82-.47-59.72-.7Z"/>
  <path class="cls-7" d="M146.8,15.93c21.04,1.28,41.85,3.4,62.58,5.89,21.42,2.57,42.83,5.34,64.55,6.84,22.04,1.52,44.19,1.38,66.33.91,21.69-.46,43.57-.44,65.19-1.56,11.12-.58,21.97-1.77,32.74-3.49,8-1.28,15.92-2.71,23.96-3.88-1.73-1.19-3.49-2.36-5.29-3.51-7.51.36-14.99.96-22.24,2.25-4.31.76-8.48,1.76-12.76,2.56-4.3.81-8.7,1.33-13.18,1.64-8.91.62-17.9.49-26.85.59-9.34.1-18.65.57-27.97.93-18.36.7-36.72.75-55.09.17-18.46-.58-36.85-1.76-55.1-3.5-8.98-.86-17.97-1.81-26.82-3.07-8.92-1.27-17.88-2.3-27.05-2.65-.83-.03-1.09-.55-.76-.87-.08-.29.2-.62.83-.63,2.38-.04,4.77-.08,7.15-.15,9.44-.28,18.87-.54,28.32-.7,4.7-.08,9.39-.17,14.08-.41,4.72-.24,9.38-.69,14.04-1.19,9.14-.99,18.3-1.84,27.56-2.35,9.25-.52,18.51-.71,27.8-.89,18.84-.38,37.67.31,56.44,1.26,18.75.96,37.45,2.25,56.16,3.41,4.72.29,9.44.62,14.19.67,4.17.05,8.28-.21,12.41-.55.92-.08,1.85-.15,2.78-.22-1.67-.98-3.36-1.95-5.08-2.9-10.6-.09-21.21-.14-31.82-.25-23.06-.22-46.01-1.09-69.01-2.08-23.37-1.01-46.84-1.9-70.27-1.12-22.99.76-45.59,3.52-68.49,4.81-22.79,1.28-45.54.35-68.33-.48-21.65-.79-43.25-.87-64.76-.15,1.15,1.05,2.32,2.09,3.5,3.11,23.44-.37,46.93.15,70.26,1.56Z"/>
  <path class="cls-7" d="M74.1,9.57c25.98-.87,51.75-.09,77.69.84,23.31.83,46.19.74,69.37-1.07,22.97-1.79,45.68-3.94,68.9-4.06,23.01-.12,45.96,1.04,68.89,2.02,23.48,1,46.94,1.44,70.47,1.58,4.48.03,8.96.06,13.43.1-1.7-.91-3.43-1.8-5.18-2.67-16.18-.25-32.35-.59-48.48-1.41-5.16-.26-10.31-.57-15.46-.91-1.72-.11-3.43-.23-5.15-.35-21.26.2-42.53.56-63.78.89-35.72.56-71.43,1.13-107.14,1.83h0c-1.42.23-2.85.44-4.29.62-9.36,1.19-18.95,1.16-28.46.86-3.12-.1-6.25-.2-9.37-.31-.83-.03-1.67-.06-2.5-.09-.77-.03-1.54-.05-2.31-.08-26.5.62-52.98,1.35-79.46,2.23.02.02.05.05.07.07.92-.03,1.84-.07,2.77-.1Z"/>
  <path class="cls-7" d="M130.36,42.8c-3.38.04-6.75.08-10.13.12,1.64.84,3.31,1.68,4.98,2.5,6.81-.61,13.57-1.42,20.31-2.24,10.75-1.32,21.48-2.53,32.35-3.37-4.51-.99-9.56-1.04-14.3-1.23-7-.29-14-.57-21-.88-11.69-.51-23.36-1.11-35.03-1.69,1.2.7,2.42,1.39,3.64,2.07,6.88.4,13.66,1.27,19.91,3.14,1.33.4.62,1.58-.72,1.59Z"/>
  <path class="cls-7" d="M357.27,71.49c-12.46-2.42-24.9-4.95-37.57-6.96-12.76-2.02-25.64-3.24-38.86-3.34-13.55-.1-27.18.5-40.69,1.09-13.42.59-26.67,1.62-39.78,3.45-6.08.85-12.13,1.74-18.2,2.56,3.47,1.15,6.96,2.26,10.46,3.35.21-.14.46-.25.75-.3,14.09-2.75,28.89-3.93,43.64-4.5,13.28-.51,26.65-.64,39.95-.66,13.02-.02,25.8.69,37.81,3.88,3.32.88,6.55,1.89,9.73,2.93,11.07.09,21.93.21,32.54.35,0,0,0,0,0,0,1.75.02,3.5.05,5.23.07.03,0,.07,0,.1,0,1.71.02,3.41.05,5.11.07.03,0,.05,0,.08,0-3.43-.66-6.86-1.33-10.29-1.99Z"/>
  <path class="cls-7" d="M420.34,28.45c-10.4,1.01-20.93,1.43-31.45,1.67-21.87.5-43.78,1.03-65.66,1.26-21.28.23-42.38-.42-63.43-2.34-21.11-1.92-41.95-4.75-62.92-7.15-21.4-2.44-42.97-4.24-64.7-5.21-17.92-.8-35.91-1.07-53.86-.82,1.44,1.2,2.91,2.38,4.41,3.55,23.48.46,46.94,1.93,70.2,3.77,44.87,3.56,89.45,8.56,134.59,10.88,22.26,1.14,44.65,1.63,66.97.92,23.62-.75,46.94-3.08,70.16-5.66,14.36-1.59,28.71-3.26,43.13-4.65-1.19-.89-2.4-1.77-3.63-2.64-4.37.57-8.73,1.22-13.09,1.94-10.16,1.69-20.29,3.46-30.72,4.47Z"/>
  <path class="cls-7" d="M459.49,38.16c-1.86.06-3.72.13-5.58.22,7.36.99,14.75,1.88,22.2,2.61,3.55.35,7.12.66,10.69.95-.7-.78-1.41-1.56-2.14-2.33-.7-.74-1.42-1.48-2.15-2.21-3.02.1-6.05.21-9.07.31-4.65.15-9.31.3-13.96.46Z"/>
  <path class="cls-7" d="M157.05,28.76c21.88,1.49,43.6,3.71,65.47,5.26,21.83,1.55,43.65,3.09,65.6,3.91,22.4.84,44.86.6,67.27,1.31,10.93.35,21.85.86,32.73,1.54,11.08.7,22.07,1.81,33.13,2.57,21.77,1.5,43.32,4.3,64.91,6.53,2.51.26,5.01.52,7.52.77-.24-.36-.48-.72-.73-1.08-.02-.03-.03-.05-.05-.07-.03-.05-.08-.11-.14-.19-.14-.2-.29-.4-.44-.6-.13-.17-.26-.34-.39-.51h0c-3.76-.36-7.53-.73-11.28-1.13-11.72-1.23-23.46-2.54-35.08-4.08-11.79-1.56-23.56-3.21-35.29-4.91-2.03-.3-2.08-2.2,0-2.48,5.62-.75,11.32-1.32,16.98-1.96,5.59-.63,11.19-1.24,16.79-1.83,9.73-1.02,19.49-1.96,29.29-2.74-.71-.58-1.42-1.17-2.14-1.74-.53-.42-1.05-.84-1.59-1.25-.02-.01-.04-.03-.05-.04-21.44,2.03-42.7,4.72-64.11,6.88-22.37,2.26-44.85,3.75-67.56,3.91-22.38.15-44.75-.76-67-2.2-44.6-2.89-88.72-7.9-133.27-11.06-17.54-1.24-35.2-2.18-52.88-2.57,1.87,1.42,3.78,2.81,5.74,4.18.38.01.77.02,1.15.04,21.85.71,43.64,2.07,65.38,3.55Z"/>
  <path class="cls-7" d="M489.33,66.42c-21.81-1.93-43.57-4.46-65.11-7.29-21-2.76-41.63-6.31-62.53-9.3-21.33-3.05-42.8-5.83-64.57-7.5-21.25-1.64-42.58-1.93-63.93-.88-32.41,1.59-64.3,5.73-96.22,9.5,1.65.74,3.31,1.47,4.98,2.19h0c6.98-.76,13.97-1.51,20.97-2.23,2.33-.24,4.67-.48,7.01-.71,5.61-.56,11.22-1.09,16.85-1.58,1.07-.09,2.14-.19,3.21-.28,4.29-.37,8.58-.71,12.87-1.03,13.96-1.03,27.97-1.77,42.02-2.05,19.3-.39,38.56.18,57.68,1.81,19.96,1.7,39.64,4.35,59.21,7.21,19.55,2.85,39.03,5.83,58.72,8.32,20.13,2.55,40.4,4.73,60.71,6.68,7.23.69,14.47,1.36,21.72,1.99-.05-.27-.11-.54-.16-.81,0,0,0,0,0,0-.12-.47-.23-.95-.36-1.42-.14-.52-.29-1.04-.45-1.56h0c-4.21-.34-8.42-.7-12.62-1.07Z"/>
  <path class="cls-7" d="M488.38,43.73h0c-5.39-.47-10.77-.99-16.13-1.53-9.14-.93-18.25-1.95-27.28-3.21-1.41-.2-1.48-1.57,0-1.74,5.21-.6,10.5-.81,15.78-1.01,5.42-.21,10.84-.42,16.26-.63,1.18-.05,2.37-.09,3.55-.13-1.47-1.4-2.98-2.78-4.55-4.14h0c-1.77.14-3.55.29-5.32.44-9.93.86-19.82,1.86-29.69,2.94-6.94.76-13.86,1.63-20.8,2.42,9.88,1.67,19.83,3.16,29.87,4.49,5.81.77,11.6,1.59,17.44,2.27,5.76.67,11.54,1.3,17.33,1.89,1.9.2,3.8.39,5.7.57-.38-.48-.76-.96-1.16-1.44-.33-.4-.66-.79-1-1.19h0Z"/>
  <path class="cls-7" d="M148.64,35.83c6.35.37,12.71.73,19.06,1.12,5.23.32,10.68.74,15.03,2.65.97.43.66,1.33-.62,1.37-14.06.44-27.88,2.65-41.6,4.37-4.17.52-8.35,1.01-12.53,1.43,1.64.79,3.28,1.56,4.95,2.33,38.35-4.52,76.68-9.37,115.95-9.79,42.94-.46,84.87,5.07,126.4,10.95,21.19,3,42.42,5.95,63.71,8.69,20.51,2.64,41.37,4.51,62.18,6.12-.53-1.48-1.13-2.96-1.8-4.42-.97-2.12-2.09-4.21-3.32-6.27-7.84-.77-15.66-1.59-23.49-2.42-21.75-2.32-43.43-5.06-65.25-7.08-22.46-2.08-44.92-3.52-67.65-3.89-22.29-.37-44.57-.44-66.82-1.45-44.05-2.01-87.84-5.91-131.65-9.22-15.67-1.18-31.4-2.05-47.15-2.72,2.97,2,6.04,3.95,9.18,5.85,2.32.12,4.64.24,6.96.36,12.83.64,25.65,1.28,38.47,2.03Z"/>
  <path class="cls-7" d="M406.53,62.47c-19.7-2.72-39.22-5.89-58.89-8.69-19.68-2.79-39.52-5.19-59.7-6.24-19.08-1-38.31-.73-57.38.16-28.43,1.32-56.53,4.21-84.6,7.14,2.97,1.24,5.97,2.46,8.99,3.65,38.03-3.41,76.3-6.51,114.84-5.78,21.82.41,43.26,2.25,64.54,5.08,22.38,2.97,44.56,6.43,67.06,9.11,33.86,4.03,68.01,7,102.19,9.84-.06-1.2-.17-2.39-.35-3.59-12.28-1.11-24.54-2.28-36.76-3.53-20.08-2.05-40.09-4.41-59.95-7.15Z"/>
  <path class="cls-5" d="M373.74,3.98c5.15.34,10.3.65,15.46.91,16.13.81,32.3,1.16,48.48,1.41-.35-.18-.7-.35-1.05-.52-.95-.47-1.9-.93-2.86-1.39-9.09-.15-18.17-.33-27.25-.61-1.28-.04-2.57-.08-3.85-.13-.37-.01-.75-.03-1.12-.04-.7-.03-1.41-.05-2.11-.08l-30.84.11h0,0c1.72.12,3.43.24,5.15.35Z"/>
  <path class="cls-5" d="M155.54,7.53c3.12.11,6.25.21,9.37.31,9.51.3,19.1.33,28.46-.86,1.44-.18,2.87-.39,4.29-.62h0l-48.61.86-5.13-.1c1.15.04,2.3.08,3.45.12,1.89.07,3.77.13,5.66.2.83.03,1.67.06,2.5.09Z"/>
</svg>