<?xml version="1.0" encoding="UTF-8"?>
<svg id="_레이어_1" data-name="레이어 1" xmlns="http://www.w3.org/2000/svg" viewBox="0 0 975 975">
  <defs>
    <style>
      .cls-1 {
        fill: #fff;
        stroke-width: 0px;
      }
    </style>
  </defs>
  <path class="cls-1" d="M487.5,0c-129.29,0-253.29,51.36-344.71,142.79C51.37,234.22,0,358.21,0,487.5s51.36,253.29,142.79,344.71c91.43,91.42,215.42,142.79,344.71,142.79s253.29-51.36,344.71-142.79c91.42-91.43,142.79-215.42,142.79-344.71-.13-129.25-51.54-253.17-142.93-344.57C740.67,51.54,616.75.13,487.5,0ZM487.5,900c-109.4,0-214.32-43.46-291.68-120.82-77.36-77.35-120.82-182.28-120.82-291.68s43.46-214.32,120.82-291.68c77.36-77.36,182.28-120.82,291.68-120.82s214.32,43.46,291.68,120.82c77.36,77.36,120.82,182.28,120.82,291.68-.13,109.36-43.63,214.21-120.96,291.54-77.33,77.33-182.18,120.83-291.54,120.96h0Z"/>
  <path class="cls-1" d="M687.5,450h-162.5v-162.5c0-13.4-7.15-25.78-18.75-32.48-11.6-6.7-25.9-6.7-37.5,0s-18.75,19.08-18.75,32.48v162.5h-162.5c-13.4,0-25.78,7.15-32.48,18.75-6.7,11.6-6.7,25.9,0,37.5s19.08,18.75,32.48,18.75h162.5v162.5c0,13.4,7.15,25.78,18.75,32.48,11.6,6.7,25.9,6.7,37.5,0s18.75-19.08,18.75-32.48v-162.5h162.5c13.4,0,25.78-7.15,32.48-18.75,6.7-11.6,6.7-25.9,0-37.5s-19.08-18.75-32.48-18.75Z"/>
</svg>